<svg width="1920" height="1080" viewBox="0 0 1920 1080" fill="none" xmlns="http://www.w3.org/2000/svg">
<g clip-path="url(#clip0_74_586)">
<g filter="url(#filter0_d_74_586)">
<path d="M1919.5 0.5H0.5V1079.5H1919.5V0.5Z" stroke="black" stroke-opacity="0.2"/>
<path d="M1919.5 0.5H0.5V1079.5H1919.5V0.5Z" stroke="black" stroke-opacity="0.2"/>
<path d="M738.897 684.592C736.443 684.561 735.016 680.281 730.532 679.569C726.509 678.93 723.54 681.492 722.237 685.126C721.684 686.669 721.807 689.994 718.951 689.182C718.061 688.929 717.092 687.279 716.55 686.539C703.428 668.639 697.082 645.002 703.777 623.352C704.654 620.514 707.53 609.315 710.858 616.63C716.957 630.033 728.027 632.03 740.718 626.213L745.54 623.844L741.168 620.458C740.146 619.584 728.99 609.249 733.862 608.156C735.515 607.785 737.807 610.53 738.847 611.557C741.056 613.738 741.575 613.764 744.227 611.695C746.23 610.133 746.883 611.571 748.758 612.821C749.428 610.765 750.464 609.052 752.705 608.454L751.478 606.565C750.957 605.508 752.922 602.296 753.444 600.778C752.416 599.212 748.283 595.49 748.363 594.263L748.388 593.953C748.842 588.413 759.857 599.454 761.511 602.065L763.688 604.964C767.689 600.084 770.181 591.832 769.3 585.635C768.397 579.284 763.674 574.727 758.346 571.652C756.52 570.599 753.419 570.011 754.565 567.317C755.558 566.183 757.322 565.869 758.659 565.296C780.307 556.022 806.575 562.497 825.318 575.412L827.798 577.193C828.887 578.021 829.751 578.843 829.175 580.339C828.395 582.361 821.785 581.477 819.835 587.314C818.641 590.885 820.35 593.456 822.766 595.926C823.718 596.899 825.17 598.004 824.557 599.566C823.775 601.563 821.119 601.099 819.426 601.372C809.546 602.969 806.456 612.916 809.228 621.475C809.531 622.411 810.39 623.762 809.946 624.77C807.977 629.246 800.998 620.475 796.407 628.713C792.632 635.488 793.492 644.953 796.174 652.07C796.534 653.025 797.153 654.139 797.311 655.138C797.51 656.401 795.946 657.383 794.834 657.06C793.318 656.619 791.905 655.807 790.364 655.343C784.639 653.62 777.546 653.083 771.804 654.967C760.173 658.784 767.595 666.207 766.131 668.842C765.041 670.806 763.086 669.612 761.529 669.165C752.521 666.577 743.699 669.033 741.529 679.223C741.1 681.234 741.378 683.909 738.897 684.592ZM761.004 568.52C763.27 569.919 765.247 571.508 767.136 573.377C775.886 582.035 774.598 595.262 768.444 605.1C767.245 607.015 766.354 607.045 766.608 609.023C767.293 614.373 755.189 625.506 750.08 626.609C746.717 627.335 747.893 626.741 744.566 628.664C730.758 636.647 717.162 634.877 708.869 621.154C700.806 641.724 706.169 665.174 718.757 682.692C720.423 679.713 722.603 676.994 726.026 676.03C729.815 674.962 734.57 675.614 737.446 678.476C738.46 673.942 741.026 669.473 745.033 666.962L746.675 666.029C751.411 663.85 756.506 663.796 761.537 664.844C759.182 651.046 774.693 648.672 785.181 650.154C787.407 650.469 789.601 651.012 791.79 651.515C788.492 640.87 788.601 618.356 805.106 621.495C802.809 610.636 805.914 600.391 818.023 597.58C818.186 597.542 818.324 597.52 818.472 597.441C813.334 591.227 815.266 581.922 822.666 578.717C822.819 578.65 822.759 578.688 822.875 578.586C807.766 568.286 789.324 562.431 770.99 565.895L761.004 568.52ZM742.476 616.448C744.602 618.35 748.774 621.517 751.62 622.244C754.798 620.163 761.025 614.229 762.012 610.732C761.361 608.341 759.378 605.709 757.936 603.738L756.923 602.555C756.525 604.849 756.463 607.356 757.446 609.522C757.774 610.244 758.261 610.895 758.547 611.634C757.436 612.246 753.838 613.04 753.68 613.218C752.793 614.226 752.325 616.857 751.647 618.166C748.319 616.368 746.161 616.996 742.476 616.448Z" fill="#FFE603" fill-opacity="0.2"/>
<path d="M1452.9 462.592C1450.44 462.561 1449.02 458.281 1444.53 457.569C1440.51 456.93 1437.54 459.492 1436.24 463.126C1435.68 464.669 1435.81 467.994 1432.95 467.182C1432.06 466.929 1431.09 465.279 1430.55 464.539C1417.43 446.639 1411.08 423.002 1417.78 401.352C1418.65 398.514 1421.53 387.315 1424.86 394.63C1430.96 408.033 1442.03 410.031 1454.72 404.213L1459.54 401.844L1455.17 398.458C1454.15 397.584 1442.99 387.249 1447.86 386.156C1449.51 385.785 1451.81 388.53 1452.85 389.557C1455.06 391.738 1455.57 391.764 1458.23 389.695C1460.23 388.133 1460.88 389.571 1462.76 390.822C1463.43 388.765 1464.46 387.052 1466.71 386.454L1465.48 384.565C1464.96 383.508 1466.92 380.296 1467.44 378.778C1466.42 377.212 1462.28 373.49 1462.36 372.263L1462.39 371.953C1462.84 366.413 1473.86 377.454 1475.51 380.066L1477.69 382.964C1481.69 378.084 1484.18 369.832 1483.3 363.635C1482.4 357.284 1477.67 352.727 1472.35 349.652C1470.52 348.599 1467.42 348.011 1468.57 345.317C1469.56 344.183 1471.32 343.869 1472.66 343.296C1494.31 334.022 1520.58 340.497 1539.32 353.412L1541.8 355.193C1542.89 356.021 1543.75 356.843 1543.17 358.339C1542.4 360.361 1535.79 359.477 1533.83 365.314C1532.64 368.886 1534.35 371.457 1536.77 373.926C1537.72 374.899 1539.17 376.004 1538.56 377.566C1537.77 379.563 1535.12 379.099 1533.43 379.372C1523.55 380.969 1520.46 390.916 1523.23 399.475C1523.53 400.411 1524.39 401.762 1523.95 402.77C1521.98 407.246 1515 398.476 1510.41 406.713C1506.63 413.488 1507.49 422.953 1510.17 430.07C1510.53 431.025 1511.15 432.139 1511.31 433.138C1511.51 434.401 1509.95 435.383 1508.83 435.06C1507.32 434.619 1505.91 433.807 1504.36 433.343C1498.64 431.62 1491.55 431.084 1485.8 432.968C1474.17 436.784 1481.59 444.207 1480.13 446.842C1479.04 448.806 1477.09 447.612 1475.53 447.165C1466.52 444.577 1457.7 447.033 1455.53 457.223C1455.1 459.234 1455.38 461.909 1452.9 462.592ZM1475 346.52C1477.27 347.919 1479.25 349.508 1481.14 351.377C1489.89 360.035 1488.6 373.263 1482.44 383.1C1481.25 385.015 1480.35 385.045 1480.61 387.023C1481.29 392.373 1469.19 403.506 1464.08 404.609C1460.72 405.335 1461.89 404.741 1458.57 406.664C1444.76 414.647 1431.16 412.877 1422.87 399.155C1414.81 419.725 1420.17 443.174 1432.76 460.693C1434.42 457.714 1436.6 454.994 1440.03 454.03C1443.81 452.963 1448.57 453.614 1451.45 456.476C1452.46 451.942 1455.03 447.473 1459.03 444.962L1460.68 444.029C1465.41 441.851 1470.51 441.796 1475.54 442.844C1473.18 429.046 1488.69 426.672 1499.18 428.155C1501.41 428.469 1503.6 429.012 1505.79 429.516C1502.49 418.87 1502.6 396.356 1519.11 399.495C1516.81 388.636 1519.91 378.391 1532.02 375.58C1532.19 375.542 1532.32 375.52 1532.47 375.441C1527.33 369.227 1529.27 359.922 1536.67 356.717C1536.82 356.65 1536.76 356.688 1536.87 356.586C1521.77 346.286 1503.32 340.431 1484.99 343.895L1475 346.52ZM1456.48 394.448C1458.6 396.35 1462.77 399.517 1465.62 400.244C1468.8 398.163 1475.03 392.229 1476.01 388.732C1475.36 386.341 1473.38 383.709 1471.94 381.738L1470.92 380.555C1470.53 382.849 1470.46 385.356 1471.45 387.522C1471.77 388.244 1472.26 388.895 1472.55 389.634C1471.44 390.246 1467.84 391.04 1467.68 391.218C1466.79 392.226 1466.33 394.858 1465.65 396.166C1462.32 394.369 1460.16 394.996 1456.48 394.448Z" fill="#FFE603" fill-opacity="0.2"/>
<path d="M326.251 370.897C326.282 368.443 330.562 367.016 331.274 362.532C331.912 358.509 329.351 355.54 325.716 354.237C324.174 353.684 320.849 353.807 321.661 350.951C321.914 350.061 323.563 349.092 324.304 348.55C342.204 335.428 365.84 329.082 387.491 335.777C390.329 336.654 401.527 339.53 394.213 342.858C380.809 348.957 378.812 360.027 384.63 372.718L386.999 377.54L390.384 373.168C391.259 372.146 401.594 360.99 402.687 365.862C403.058 367.515 400.313 369.807 399.286 370.847C397.105 373.056 397.079 373.575 399.148 376.227C400.71 378.23 399.271 378.883 398.021 380.758C400.077 381.428 401.79 382.464 402.389 384.705L404.278 383.478C405.335 382.957 408.547 384.922 410.064 385.444C411.63 384.416 415.353 380.283 416.58 380.363L416.89 380.388C422.43 380.842 411.388 391.857 408.777 393.511L405.879 395.688C410.758 399.689 419.01 402.181 425.208 401.3C431.559 400.397 436.116 395.674 439.191 390.346C440.244 388.52 440.832 385.419 443.526 386.565C444.66 387.558 444.974 389.322 445.547 390.659C454.82 412.307 448.346 438.575 435.431 457.318L433.65 459.798C432.822 460.887 432 461.751 430.504 461.175C428.482 460.395 429.366 453.785 423.529 451.835C419.957 450.641 417.386 452.35 414.917 454.766C413.944 455.718 412.839 457.17 411.277 456.557C409.279 455.775 409.744 453.119 409.471 451.426C407.874 441.546 397.927 438.456 389.367 441.228C388.432 441.531 387.081 442.39 386.072 441.946C381.597 439.977 390.367 432.998 382.129 428.407C375.355 424.632 365.89 425.492 358.773 428.174C357.818 428.534 356.704 429.153 355.705 429.311C354.441 429.51 353.46 427.946 353.783 426.834C354.224 425.318 355.036 423.905 355.499 422.364C357.223 416.639 357.759 409.546 355.875 403.804C352.058 392.173 344.636 399.595 342.001 398.131C340.036 397.041 341.231 395.086 341.678 393.529C344.266 384.521 341.81 375.699 331.619 373.529C329.609 373.1 326.934 373.378 326.251 370.897ZM442.323 393.004C440.924 395.27 439.335 397.247 437.466 399.136C428.808 407.886 415.58 406.598 405.743 400.444C403.827 399.245 403.798 398.354 401.819 398.608C396.469 399.293 385.337 387.189 384.234 382.08C383.507 378.717 384.102 379.893 382.178 376.566C374.195 362.758 375.966 349.162 389.688 340.869C369.118 332.806 345.668 338.169 328.15 350.757C331.129 352.423 333.848 354.603 334.813 358.026C335.88 361.815 335.229 366.57 332.367 369.446C336.9 370.46 341.369 373.026 343.881 377.033L344.813 378.675C346.992 383.411 347.047 388.506 345.998 393.537C359.797 391.182 362.171 406.693 360.688 417.181C360.374 419.407 359.831 421.601 359.327 423.79C369.973 420.492 392.487 420.601 389.347 437.106C400.206 434.809 410.451 437.914 413.263 450.023C413.301 450.186 413.322 450.324 413.402 450.472C419.616 445.334 428.921 447.266 432.126 454.666C432.192 454.819 432.155 454.759 432.257 454.875C442.557 439.766 448.412 421.324 444.948 402.99L442.323 393.004ZM394.395 374.476C392.493 376.602 389.326 380.774 388.598 383.62C390.68 386.798 396.614 393.025 400.111 394.012C402.502 393.361 405.134 391.378 407.105 389.936L408.288 388.923C405.994 388.525 403.487 388.463 401.321 389.446C400.599 389.774 399.948 390.261 399.209 390.547C398.597 389.436 397.803 385.838 397.625 385.68C396.617 384.793 393.985 384.325 392.677 383.647C394.474 380.319 393.847 378.161 394.395 374.476Z" fill="#FFE603" fill-opacity="0.2"/>
<path d="M447.405 221.327C445.692 219.57 447.709 215.534 445.042 211.86C442.648 208.564 438.737 208.276 435.246 209.924C433.764 210.624 431.501 213.062 430.055 210.469C429.605 209.661 430.086 207.809 430.226 206.902C433.605 184.966 445.831 163.765 465.874 153.19C468.501 151.804 478.453 145.918 475.634 153.444C470.469 167.234 476.885 176.474 489.972 181.334L495.057 183.069L494.359 177.583C494.255 176.242 493.675 161.046 497.893 163.718C499.323 164.625 499.004 168.186 499.013 169.648C499.033 172.753 499.381 173.137 502.719 173.55C505.241 173.862 504.685 175.341 505.127 177.55C507.054 176.57 508.998 176.092 511.006 177.253L511.474 175.05C511.853 173.934 515.514 173.052 516.956 172.348C517.337 170.514 517.047 164.959 517.97 164.148L518.207 163.946C522.446 160.35 522.427 175.947 521.75 178.962L521.24 182.551C527.52 181.93 535.116 177.857 538.876 172.852C542.728 167.723 542.611 161.161 541.017 155.219C540.471 153.183 538.694 150.575 541.41 149.48C542.913 149.38 544.383 150.406 545.733 150.946C567.598 159.696 581.595 182.848 585.715 205.234L586.21 208.247C586.394 209.602 586.424 210.795 584.959 211.445C582.978 212.324 578.929 207.024 573.422 209.773C570.053 211.454 569.443 214.48 569.405 217.935C569.39 219.296 569.636 221.104 568.098 221.776C566.132 222.634 564.583 220.428 563.192 219.424C555.077 213.567 545.858 218.416 541.766 226.428C541.319 227.304 540.971 228.867 539.944 229.266C535.387 231.038 536.653 219.902 527.583 222.481C520.123 224.602 514.038 231.903 510.902 238.832C510.481 239.761 510.132 240.987 509.537 241.804C508.784 242.839 506.984 242.427 506.426 241.412C505.666 240.029 505.241 238.455 504.479 237.038C501.649 231.771 497.013 226.376 491.621 223.648C480.698 218.123 480.697 228.619 477.799 229.448C475.639 230.065 475.101 227.839 474.317 226.422C469.777 218.222 461.802 213.721 453.062 219.392C451.337 220.51 449.642 222.599 447.405 221.327ZM545.112 154.884C545.725 157.476 545.999 159.997 546.013 162.654C546.078 174.963 535.814 183.406 524.507 186.01C522.305 186.517 521.654 185.908 520.434 187.486C517.136 191.754 500.705 191.067 496.312 188.234C493.421 186.37 494.673 186.781 490.96 185.789C475.551 181.67 467.189 170.804 471.028 155.237C450.782 164.081 437.993 184.455 434.506 205.743C437.791 204.814 441.255 204.433 444.358 206.171C447.792 208.096 450.693 211.919 450.703 215.976C454.626 213.487 459.6 212.142 464.21 213.2L466.03 213.701C470.92 215.51 474.561 219.073 477.377 223.373C485.469 211.95 498.115 221.239 504.483 229.704C505.835 231.5 507.003 233.436 508.194 235.339C513.389 225.479 529.387 209.637 538.837 223.528C544.892 214.225 554.332 209.177 564.882 215.751C565.024 215.839 565.137 215.922 565.298 215.97C566.058 207.943 574.004 202.729 581.503 205.695C581.658 205.757 581.589 205.741 581.743 205.751C578.343 187.784 569.443 170.603 554.03 160.089L545.112 154.884ZM498.12 175.673C498.278 178.521 498.99 183.71 500.488 186.237C504.207 187.013 512.806 187.22 515.976 185.445C517.207 183.294 517.666 180.03 518.039 177.617L518.16 176.065C516.256 177.405 514.439 179.134 513.603 181.361C513.325 182.103 513.209 182.908 512.888 183.633C511.67 183.28 508.564 181.297 508.327 181.312C506.987 181.397 504.795 182.927 503.39 183.372C502.308 179.748 500.338 178.665 498.12 175.673Z" fill="#FFE603" fill-opacity="0.2"/>
<path d="M166.897 214.592C164.443 214.561 163.016 210.281 158.532 209.569C154.509 208.93 151.54 211.492 150.237 215.126C149.684 216.669 149.807 219.994 146.951 219.182C146.061 218.929 145.092 217.279 144.55 216.539C131.428 198.639 125.082 175.002 131.777 153.352C132.654 150.514 135.53 139.315 138.858 146.63C144.957 160.033 156.027 162.03 168.718 156.213L173.54 153.844L169.168 150.458C168.146 149.584 156.99 139.249 161.862 138.156C163.515 137.785 165.807 140.53 166.847 141.557C169.056 143.738 169.575 143.764 172.227 141.695C174.23 140.133 174.883 141.571 176.758 142.821C177.428 140.765 178.464 139.052 180.705 138.454L179.478 136.565C178.957 135.508 180.922 132.296 181.444 130.778C180.416 129.212 176.283 125.49 176.363 124.263L176.387 123.953C176.842 118.413 187.857 129.454 189.511 132.066L191.688 134.964C195.689 130.084 198.181 121.832 197.3 115.635C196.397 109.284 191.674 104.727 186.346 101.652C184.52 100.599 181.419 100.011 182.565 97.3167C183.558 96.1829 185.322 95.8689 186.659 95.296C208.307 86.0225 234.575 92.4967 253.318 105.412L255.798 107.193C256.887 108.021 257.751 108.843 257.175 110.339C256.395 112.361 249.785 111.477 247.835 117.314C246.641 120.885 248.35 123.456 250.766 125.926C251.718 126.899 253.17 128.004 252.557 129.566C251.775 131.563 249.119 131.099 247.426 131.372C237.546 132.969 234.456 142.916 237.228 151.475C237.531 152.411 238.389 153.762 237.946 154.77C235.977 159.246 228.998 150.475 224.407 158.713C220.632 165.488 221.492 174.953 224.174 182.07C224.534 183.025 225.153 184.139 225.311 185.138C225.51 186.401 223.946 187.383 222.834 187.06C221.318 186.619 219.905 185.807 218.364 185.343C212.639 183.62 205.546 183.083 199.804 184.967C188.173 188.784 195.595 196.207 194.131 198.842C193.041 200.806 191.086 199.612 189.529 199.165C180.521 196.577 171.699 199.033 169.529 209.223C169.1 211.234 169.378 213.909 166.897 214.592ZM189.004 98.5201C191.27 99.9191 193.247 101.508 195.136 103.377C203.886 112.035 202.598 125.262 196.444 135.1C195.245 137.015 194.354 137.045 194.608 139.023C195.293 144.373 183.189 155.506 178.08 156.609C174.717 157.335 175.893 156.741 172.566 158.664C158.758 166.647 145.162 164.877 136.869 151.155C128.806 171.724 134.169 195.174 146.757 212.693C148.423 209.714 150.603 206.994 154.026 206.03C157.815 204.962 162.57 205.614 165.446 208.476C166.459 203.942 169.026 199.473 173.033 196.962L174.675 196.029C179.411 193.851 184.506 193.796 189.537 194.844C187.182 181.046 202.693 178.672 213.181 180.155C215.407 180.469 217.601 181.012 219.79 181.515C216.492 170.87 216.601 148.356 233.106 151.495C230.809 140.636 233.914 130.391 246.023 127.58C246.186 127.542 246.324 127.52 246.472 127.441C241.334 121.227 243.266 111.922 250.666 108.717C250.819 108.65 250.759 108.688 250.875 108.586C235.766 98.2861 217.324 92.4306 198.99 95.8946L189.004 98.5201ZM170.476 146.448C172.602 148.35 176.774 151.517 179.62 152.244C182.798 150.163 189.025 144.229 190.012 140.732C189.361 138.341 187.378 135.709 185.936 133.738L184.923 132.555C184.525 134.849 184.463 137.356 185.446 139.522C185.774 140.244 186.261 140.895 186.547 141.634C185.436 142.246 181.838 143.04 181.68 143.218C180.793 144.226 180.325 146.858 179.647 148.166C176.319 146.369 174.161 146.996 170.476 146.448Z" fill="#FFE603" fill-opacity="0.2"/>
<path d="M1315.9 1000.59C1313.44 1000.56 1312.02 996.281 1307.53 995.569C1303.51 994.93 1300.54 997.492 1299.24 1001.13C1298.68 1002.67 1298.81 1005.99 1295.95 1005.18C1295.06 1004.93 1294.09 1003.28 1293.55 1002.54C1280.43 984.639 1274.08 961.002 1280.78 939.352C1281.65 936.514 1284.53 925.315 1287.86 932.63C1293.96 946.033 1305.03 948.031 1317.72 942.213L1322.54 939.844L1318.17 936.459C1317.15 935.584 1305.99 925.249 1310.86 924.156C1312.51 923.785 1314.81 926.53 1315.85 927.557C1318.06 929.738 1318.57 929.764 1321.23 927.695C1323.23 926.133 1323.88 927.572 1325.76 928.822C1326.43 926.765 1327.46 925.052 1329.71 924.454L1328.48 922.565C1327.96 921.508 1329.92 918.296 1330.44 916.778C1329.42 915.212 1325.28 911.49 1325.36 910.263L1325.39 909.953C1325.84 904.413 1336.86 915.454 1338.51 918.066L1340.69 920.964C1344.69 916.084 1347.18 907.832 1346.3 901.635C1345.4 895.284 1340.67 890.727 1335.35 887.652C1333.52 886.599 1330.42 886.011 1331.57 883.317C1332.56 882.183 1334.32 881.869 1335.66 881.296C1357.31 872.023 1383.58 878.497 1402.32 891.412L1404.8 893.193C1405.89 894.021 1406.75 894.843 1406.17 896.339C1405.4 898.361 1398.79 897.477 1396.83 903.314C1395.64 906.886 1397.35 909.457 1399.77 911.926C1400.72 912.899 1402.17 914.004 1401.56 915.566C1400.77 917.563 1398.12 917.099 1396.43 917.372C1386.55 918.969 1383.46 928.916 1386.23 937.475C1386.53 938.411 1387.39 939.762 1386.95 940.77C1384.98 945.246 1378 936.476 1373.41 944.713C1369.63 951.488 1370.49 960.953 1373.17 968.07C1373.53 969.025 1374.15 970.139 1374.31 971.138C1374.51 972.401 1372.95 973.383 1371.83 973.06C1370.32 972.619 1368.91 971.807 1367.36 971.343C1361.64 969.62 1354.55 969.084 1348.8 970.968C1337.17 974.784 1344.59 982.207 1343.13 984.842C1342.04 986.806 1340.09 985.612 1338.53 985.165C1329.52 982.577 1320.7 985.033 1318.53 995.223C1318.1 997.234 1318.38 999.909 1315.9 1000.59ZM1338 884.52C1340.27 885.919 1342.25 887.508 1344.14 889.377C1352.89 898.035 1351.6 911.263 1345.44 921.1C1344.25 923.015 1343.35 923.045 1343.61 925.023C1344.29 930.373 1332.19 941.506 1327.08 942.609C1323.72 943.335 1324.89 942.741 1321.57 944.664C1307.76 952.648 1294.16 950.877 1285.87 937.155C1277.81 957.725 1283.17 981.175 1295.76 998.693C1297.42 995.714 1299.6 992.994 1303.03 992.03C1306.81 990.963 1311.57 991.614 1314.45 994.476C1315.46 989.942 1318.03 985.473 1322.03 982.962L1323.68 982.029C1328.41 979.851 1333.51 979.796 1338.54 980.845C1336.18 967.046 1351.69 964.672 1362.18 966.155C1364.41 966.469 1366.6 967.012 1368.79 967.516C1365.49 956.87 1365.6 934.356 1382.11 937.495C1379.81 926.636 1382.91 916.392 1395.02 913.58C1395.19 913.542 1395.32 913.52 1395.47 913.441C1390.33 907.227 1392.27 897.922 1399.67 894.717C1399.82 894.65 1399.76 894.688 1399.87 894.586C1384.77 884.286 1366.32 878.431 1347.99 881.895L1338 884.52ZM1319.48 932.448C1321.6 934.35 1325.77 937.517 1328.62 938.244C1331.8 936.163 1338.03 930.229 1339.01 926.732C1338.36 924.341 1336.38 921.709 1334.94 919.738L1333.92 918.555C1333.53 920.849 1333.46 923.356 1334.45 925.522C1334.77 926.244 1335.26 926.895 1335.55 927.634C1334.44 928.246 1330.84 929.04 1330.68 929.218C1329.79 930.226 1329.33 932.858 1328.65 934.166C1325.32 932.369 1323.16 932.996 1319.48 932.448Z" fill="#FFE603" fill-opacity="0.2"/>
<path d="M973.251 785.897C973.282 783.443 977.562 782.016 978.274 777.532C978.913 773.509 976.351 770.54 972.716 769.237C971.174 768.684 967.849 768.807 968.661 765.951C968.914 765.061 970.563 764.092 971.304 763.549C989.204 750.428 1012.84 744.082 1034.49 750.777C1037.33 751.654 1048.53 754.53 1041.21 757.858C1027.81 763.957 1025.81 775.027 1031.63 787.718L1034 792.54L1037.38 788.168C1038.26 787.146 1048.59 775.99 1049.69 780.862C1050.06 782.515 1047.31 784.807 1046.29 785.847C1044.1 788.056 1044.08 788.574 1046.15 791.227C1047.71 793.23 1046.27 793.883 1045.02 795.758C1047.08 796.428 1048.79 797.464 1049.39 799.705L1051.28 798.478C1052.33 797.957 1055.55 799.922 1057.06 800.444C1058.63 799.416 1062.35 795.283 1063.58 795.363L1063.89 795.387C1069.43 795.842 1058.39 806.857 1055.78 808.51L1052.88 810.687C1057.76 814.689 1066.01 817.18 1072.21 816.299C1078.56 815.397 1083.12 810.674 1086.19 805.345C1087.24 803.52 1087.83 800.419 1090.53 801.565C1091.66 802.558 1091.97 804.322 1092.55 805.659C1101.82 827.307 1095.35 853.575 1082.43 872.318L1080.65 874.798C1079.82 875.886 1079 876.751 1077.5 876.175C1075.48 875.395 1076.37 868.785 1070.53 866.835C1066.96 865.641 1064.39 867.35 1061.92 869.766C1060.94 870.718 1059.84 872.17 1058.28 871.557C1056.28 870.775 1056.74 868.119 1056.47 866.426C1054.87 856.546 1044.93 853.455 1036.37 856.228C1035.43 856.531 1034.08 857.389 1033.07 856.946C1028.6 854.977 1037.37 847.998 1029.13 843.407C1022.35 839.632 1012.89 840.492 1005.77 843.174C1004.82 843.534 1003.7 844.153 1002.71 844.311C1001.44 844.51 1000.46 842.946 1000.78 841.834C1001.22 840.318 1002.04 838.905 1002.5 837.364C1004.22 831.639 1004.76 824.546 1002.88 818.804C999.058 807.173 991.636 814.595 989.001 813.131C987.037 812.04 988.231 810.086 988.678 808.529C991.266 799.521 988.81 790.699 978.62 788.529C976.609 788.1 973.934 788.378 973.251 785.897ZM1089.32 808.004C1087.92 810.27 1086.33 812.247 1084.47 814.136C1075.81 822.886 1062.58 821.598 1052.74 815.444C1050.83 814.245 1050.8 813.354 1048.82 813.608C1043.47 814.293 1032.34 802.189 1031.23 797.08C1030.51 793.717 1031.1 794.893 1029.18 791.566C1021.2 777.758 1022.97 764.162 1036.69 755.869C1016.12 747.806 992.668 753.169 975.15 765.757C978.129 767.423 980.848 769.603 981.813 773.026C982.88 776.815 982.229 781.57 979.367 784.446C983.9 785.459 988.369 788.026 990.881 792.033L991.813 793.675C993.992 798.411 994.047 803.506 992.998 808.537C1006.8 806.182 1009.17 821.692 1007.69 832.181C1007.37 834.407 1006.83 836.601 1006.33 838.79C1016.97 835.491 1039.49 835.601 1036.35 852.106C1047.21 849.809 1057.45 852.914 1060.26 865.023C1060.3 865.186 1060.32 865.324 1060.4 865.472C1066.62 860.334 1075.92 862.266 1079.13 869.665C1079.19 869.819 1079.15 869.759 1079.26 869.875C1089.56 854.766 1095.41 836.324 1091.95 817.99L1089.32 808.004ZM1041.39 789.476C1039.49 791.602 1036.33 795.774 1035.6 798.62C1037.68 801.798 1043.61 808.025 1047.11 809.012C1049.5 808.361 1052.13 806.378 1054.1 804.936L1055.29 803.923C1052.99 803.525 1050.49 803.463 1048.32 804.446C1047.6 804.774 1046.95 805.261 1046.21 805.547C1045.6 804.436 1044.8 800.838 1044.62 800.68C1043.62 799.793 1040.99 799.325 1039.68 798.647C1041.47 795.318 1040.85 793.161 1041.39 789.476Z" fill="#FFE603" fill-opacity="0.2"/>
<path d="M1151.4 467.327C1149.69 465.57 1151.71 461.534 1149.04 457.86C1146.65 454.564 1142.74 454.276 1139.25 455.924C1137.76 456.624 1135.5 459.062 1134.06 456.469C1133.6 455.661 1134.09 453.809 1134.23 452.902C1137.6 430.966 1149.83 409.765 1169.87 399.19C1172.5 397.804 1182.45 391.918 1179.63 399.444C1174.47 413.234 1180.89 422.474 1193.97 427.334L1199.06 429.069L1198.36 423.583C1198.26 422.242 1197.68 407.046 1201.89 409.718C1203.32 410.625 1203 414.186 1203.01 415.648C1203.03 418.752 1203.38 419.137 1206.72 419.55C1209.24 419.862 1208.69 421.341 1209.13 423.55C1211.05 422.57 1213 422.092 1215.01 423.253L1215.47 421.05C1215.85 419.934 1219.51 419.052 1220.96 418.348C1221.34 416.514 1221.05 410.959 1221.97 410.148L1222.21 409.946C1226.45 406.35 1226.43 421.947 1225.75 424.962L1225.24 428.551C1231.52 427.93 1239.12 423.857 1242.88 418.852C1246.73 413.723 1246.61 407.161 1245.02 401.219C1244.47 399.183 1242.69 396.575 1245.41 395.48C1246.91 395.38 1248.38 396.406 1249.73 396.946C1271.6 405.696 1285.59 428.848 1289.72 451.234L1290.21 454.247C1290.39 455.602 1290.42 456.795 1288.96 457.445C1286.98 458.324 1282.93 453.024 1277.42 455.773C1274.05 457.454 1273.44 460.48 1273.41 463.935C1273.39 465.296 1273.64 467.104 1272.1 467.776C1270.13 468.634 1268.58 466.428 1267.19 465.424C1259.08 459.567 1249.86 464.416 1245.77 472.428C1245.32 473.304 1244.97 474.867 1243.94 475.266C1239.39 477.038 1240.65 465.902 1231.58 468.481C1224.12 470.602 1218.04 477.903 1214.9 484.832C1214.48 485.761 1214.13 486.987 1213.54 487.804C1212.78 488.839 1210.98 488.427 1210.43 487.412C1209.67 486.029 1209.24 484.455 1208.48 483.038C1205.65 477.771 1201.01 472.376 1195.62 469.648C1184.7 464.122 1184.7 474.619 1181.8 475.448C1179.64 476.065 1179.1 473.839 1178.32 472.422C1173.78 464.222 1165.8 459.721 1157.06 465.392C1155.34 466.51 1153.64 468.599 1151.4 467.327ZM1249.11 400.884C1249.73 403.476 1250 405.997 1250.01 408.654C1250.08 420.963 1239.81 429.406 1228.51 432.01C1226.3 432.517 1225.65 431.908 1224.43 433.486C1221.14 437.754 1204.7 437.067 1200.31 434.234C1197.42 432.37 1198.67 432.781 1194.96 431.789C1179.55 427.67 1171.19 416.804 1175.03 401.237C1154.78 410.081 1141.99 430.455 1138.51 451.743C1141.79 450.814 1145.26 450.433 1148.36 452.171C1151.79 454.096 1154.69 457.919 1154.7 461.976C1158.63 459.487 1163.6 458.142 1168.21 459.2L1170.03 459.701C1174.92 461.51 1178.56 465.073 1181.38 469.372C1189.47 457.95 1202.12 467.239 1208.48 475.704C1209.84 477.5 1211 479.436 1212.19 481.339C1217.39 471.479 1233.39 455.637 1242.84 469.527C1248.89 460.225 1258.33 455.177 1268.88 461.751C1269.02 461.839 1269.14 461.922 1269.3 461.97C1270.06 453.943 1278 448.729 1285.5 451.695C1285.66 451.757 1285.59 451.741 1285.74 451.751C1282.34 433.784 1273.44 416.603 1258.03 406.089L1249.11 400.884ZM1202.12 421.673C1202.28 424.521 1202.99 429.71 1204.49 432.237C1208.21 433.012 1216.81 433.22 1219.98 431.445C1221.21 429.294 1221.67 426.03 1222.04 423.617L1222.16 422.065C1220.26 423.405 1218.44 425.134 1217.6 427.361C1217.32 428.103 1217.21 428.907 1216.89 429.633C1215.67 429.28 1212.56 427.297 1212.33 427.312C1210.99 427.397 1208.8 428.927 1207.39 429.372C1206.31 425.748 1204.34 424.665 1202.12 421.673Z" fill="#FFE603" fill-opacity="0.2"/>
<path d="M870.897 460.592C868.443 460.561 867.016 456.281 862.532 455.569C858.509 454.93 855.54 457.492 854.237 461.126C853.684 462.669 853.807 465.994 850.951 465.182C850.061 464.929 849.092 463.279 848.55 462.539C835.428 444.639 829.082 421.002 835.777 399.352C836.654 396.514 839.53 385.315 842.858 392.63C848.957 406.033 860.027 408.031 872.718 402.213L877.54 399.844L873.168 396.458C872.146 395.584 860.99 385.249 865.862 384.156C867.515 383.785 869.807 386.53 870.847 387.557C873.056 389.738 873.575 389.764 876.227 387.695C878.23 386.133 878.883 387.571 880.758 388.822C881.428 386.765 882.464 385.052 884.705 384.454L883.478 382.565C882.957 381.508 884.922 378.296 885.444 376.778C884.416 375.212 880.283 371.49 880.363 370.263L880.388 369.953C880.842 364.413 891.857 375.454 893.511 378.066L895.688 380.964C899.689 376.084 902.181 367.832 901.3 361.635C900.397 355.284 895.674 350.727 890.346 347.652C888.52 346.599 885.419 346.011 886.565 343.317C887.558 342.183 889.322 341.869 890.659 341.296C912.307 332.022 938.575 338.497 957.318 351.412L959.798 353.193C960.887 354.021 961.751 354.843 961.175 356.339C960.395 358.361 953.785 357.477 951.835 363.314C950.641 366.886 952.35 369.457 954.766 371.926C955.718 372.899 957.17 374.004 956.557 375.566C955.775 377.563 953.119 377.099 951.426 377.372C941.546 378.969 938.456 388.916 941.228 397.475C941.531 398.411 942.39 399.762 941.946 400.77C939.977 405.246 932.998 396.476 928.407 404.713C924.632 411.488 925.492 420.953 928.174 428.07C928.534 429.025 929.153 430.139 929.311 431.138C929.51 432.401 927.946 433.383 926.834 433.06C925.318 432.619 923.905 431.807 922.364 431.343C916.639 429.62 909.546 429.084 903.804 430.968C892.173 434.784 899.595 442.207 898.131 444.842C897.041 446.806 895.086 445.612 893.529 445.165C884.521 442.577 875.699 445.033 873.529 455.223C873.1 457.234 873.378 459.909 870.897 460.592ZM893.004 344.52C895.27 345.919 897.247 347.508 899.136 349.377C907.886 358.035 906.598 371.263 900.444 381.1C899.245 383.015 898.354 383.045 898.608 385.023C899.293 390.373 887.189 401.506 882.08 402.609C878.717 403.335 879.893 402.741 876.566 404.664C862.758 412.647 849.162 410.877 840.869 397.155C832.806 417.725 838.169 441.174 850.757 458.693C852.423 455.714 854.603 452.994 858.026 452.03C861.815 450.963 866.57 451.614 869.446 454.476C870.46 449.942 873.026 445.473 877.033 442.962L878.675 442.029C883.411 439.851 888.506 439.796 893.537 440.844C891.182 427.046 906.693 424.672 917.181 426.155C919.407 426.469 921.601 427.012 923.79 427.516C920.492 416.87 920.601 394.356 937.106 397.495C934.809 386.636 937.914 376.391 950.023 373.58C950.186 373.542 950.324 373.52 950.472 373.441C945.334 367.227 947.266 357.922 954.666 354.717C954.819 354.65 954.759 354.688 954.875 354.586C939.766 344.286 921.324 338.431 902.99 341.895L893.004 344.52ZM874.476 392.448C876.602 394.35 880.774 397.517 883.62 398.244C886.798 396.163 893.025 390.229 894.012 386.732C893.361 384.341 891.378 381.709 889.936 379.738L888.923 378.555C888.525 380.849 888.463 383.356 889.446 385.522C889.774 386.244 890.261 386.895 890.547 387.634C889.436 388.246 885.838 389.04 885.68 389.218C884.793 390.226 884.325 392.858 883.647 394.166C880.319 392.369 878.161 392.996 874.476 392.448Z" fill="#FFE603" fill-opacity="0.2"/>
<path d="M192.897 928.592C190.443 928.561 189.016 924.281 184.532 923.569C180.509 922.93 177.54 925.492 176.237 929.126C175.684 930.669 175.807 933.994 172.951 933.182C172.061 932.929 171.092 931.279 170.55 930.539C157.428 912.639 151.082 889.002 157.777 867.352C158.654 864.514 161.53 853.315 164.858 860.63C170.957 874.033 182.027 876.03 194.718 870.213L199.54 867.844L195.168 864.458C194.146 863.584 182.99 853.249 187.862 852.156C189.515 851.785 191.807 854.53 192.847 855.557C195.056 857.738 195.575 857.764 198.227 855.695C200.23 854.133 200.883 855.571 202.758 856.821C203.428 854.765 204.464 853.052 206.705 852.454L205.478 850.565C204.957 849.508 206.922 846.296 207.444 844.778C206.416 843.212 202.283 839.49 202.363 838.263L202.387 837.953C202.842 832.413 213.857 843.454 215.511 846.065L217.688 848.964C221.689 844.084 224.181 835.832 223.3 829.635C222.397 823.284 217.674 818.727 212.346 815.652C210.52 814.599 207.419 814.011 208.565 811.317C209.558 810.183 211.322 809.869 212.659 809.296C234.307 800.022 260.575 806.497 279.318 819.412L281.798 821.193C282.887 822.021 283.751 822.843 283.175 824.339C282.395 826.361 275.785 825.477 273.835 831.314C272.641 834.885 274.35 837.456 276.766 839.926C277.718 840.899 279.17 842.004 278.557 843.566C277.775 845.563 275.119 845.099 273.426 845.372C263.546 846.969 260.456 856.916 263.228 865.475C263.531 866.411 264.39 867.762 263.946 868.77C261.977 873.246 254.998 864.475 250.407 872.713C246.632 879.488 247.492 888.953 250.174 896.07C250.534 897.025 251.153 898.139 251.311 899.138C251.51 900.401 249.946 901.383 248.834 901.06C247.318 900.619 245.905 899.807 244.364 899.343C238.639 897.62 231.546 897.083 225.804 898.967C214.173 902.784 221.595 910.207 220.131 912.842C219.041 914.806 217.086 913.612 215.529 913.165C206.521 910.577 197.699 913.033 195.529 923.223C195.1 925.234 195.378 927.909 192.897 928.592ZM215.004 812.52C217.27 813.919 219.247 815.508 221.136 817.377C229.886 826.035 228.598 839.262 222.444 849.1C221.245 851.015 220.354 851.045 220.608 853.023C221.293 858.373 209.189 869.506 204.08 870.609C200.717 871.335 201.893 870.741 198.566 872.664C184.758 880.647 171.162 878.877 162.869 865.154C154.806 885.724 160.169 909.174 172.757 926.692C174.423 923.713 176.603 920.994 180.026 920.03C183.815 918.962 188.57 919.614 191.446 922.476C192.459 917.942 195.026 913.473 199.033 910.962L200.675 910.029C205.411 907.85 210.506 907.796 215.537 908.844C213.182 895.046 228.693 892.672 239.181 894.154C241.407 894.469 243.601 895.012 245.79 895.515C242.492 884.87 242.601 862.356 259.106 865.495C256.809 854.636 259.914 844.391 272.023 841.58C272.186 841.542 272.324 841.52 272.472 841.441C267.334 835.227 269.266 825.922 276.666 822.717C276.819 822.65 276.759 822.688 276.875 822.586C261.766 812.286 243.324 806.431 224.99 809.895L215.004 812.52ZM196.476 860.448C198.602 862.35 202.774 865.517 205.62 866.244C208.798 864.163 215.025 858.229 216.012 854.732C215.361 852.341 213.378 849.709 211.936 847.738L210.923 846.555C210.525 848.849 210.463 851.356 211.446 853.522C211.774 854.244 212.261 854.895 212.547 855.634C211.436 856.246 207.838 857.04 207.68 857.218C206.793 858.226 206.325 860.857 205.647 862.166C202.319 860.368 200.161 860.996 196.476 860.448Z" fill="#FFE603" fill-opacity="0.2"/>
<path d="M473.251 886.897C473.282 884.443 477.562 883.016 478.274 878.532C478.913 874.509 476.351 871.54 472.716 870.237C471.174 869.684 467.849 869.807 468.661 866.951C468.914 866.061 470.563 865.092 471.304 864.549C489.204 851.428 512.84 845.081 534.491 851.776C537.329 852.654 548.527 855.53 541.213 858.858C527.809 864.956 525.812 876.027 531.63 888.717L533.999 893.54L537.384 889.168C538.259 888.146 548.594 876.99 549.687 881.862C550.058 883.515 547.313 885.807 546.286 886.847C544.105 889.056 544.079 889.574 546.148 892.227C547.71 894.23 546.271 894.883 545.021 896.758C547.077 897.428 548.79 898.464 549.389 900.705L551.278 899.478C552.335 898.957 555.547 900.922 557.064 901.444C558.63 900.416 562.353 896.283 563.58 896.363L563.89 896.387C569.43 896.842 558.388 907.857 555.777 909.51L552.879 911.687C557.758 915.689 566.01 918.18 572.208 917.299C578.559 916.397 583.116 911.674 586.191 906.345C587.244 904.52 587.832 901.419 590.526 902.565C591.66 903.558 591.974 905.322 592.547 906.659C601.82 928.307 595.346 954.575 582.431 973.318L580.65 975.798C579.822 976.886 579 977.751 577.504 977.175C575.482 976.395 576.366 969.785 570.529 967.835C566.957 966.641 564.386 968.35 561.917 970.766C560.944 971.718 559.839 973.17 558.277 972.557C556.28 971.774 556.744 969.119 556.471 967.426C554.874 957.546 544.927 954.455 536.367 957.228C535.432 957.53 534.081 958.389 533.072 957.946C528.597 955.977 537.367 948.997 529.129 944.407C522.355 940.632 512.89 941.492 505.773 944.174C504.818 944.534 503.704 945.153 502.705 945.311C501.441 945.51 500.46 943.946 500.783 942.834C501.224 941.318 502.036 939.905 502.499 938.364C504.223 932.639 504.759 925.546 502.875 919.804C499.058 908.173 491.636 915.595 489.001 914.131C487.037 913.04 488.231 911.086 488.678 909.529C491.266 900.521 488.81 891.699 478.62 889.528C476.609 889.1 473.934 889.378 473.251 886.897ZM589.323 909.004C587.924 911.27 586.335 913.247 584.466 915.136C575.808 923.886 562.58 922.598 552.743 916.444C550.827 915.245 550.798 914.354 548.82 914.608C543.469 915.293 532.337 903.189 531.234 898.08C530.507 894.717 531.102 895.893 529.179 892.566C521.195 878.758 522.966 865.162 536.688 856.869C516.118 848.806 492.668 854.169 475.15 866.757C478.129 868.423 480.848 870.603 481.813 874.026C482.88 877.815 482.229 882.57 479.367 885.446C483.9 886.459 488.369 889.026 490.881 893.033L491.813 894.675C493.992 899.411 494.047 904.506 492.998 909.537C506.797 907.182 509.171 922.692 507.688 933.181C507.374 935.407 506.831 937.601 506.327 939.79C516.973 936.491 539.487 936.601 536.347 953.106C547.206 950.809 557.451 953.914 560.263 966.023C560.301 966.185 560.322 966.324 560.402 966.472C566.616 961.334 575.921 963.266 579.126 970.665C579.192 970.819 579.155 970.759 579.257 970.874C589.557 955.766 595.412 937.324 591.948 918.99L589.323 909.004ZM541.395 890.476C539.493 892.601 536.326 896.774 535.598 899.62C537.68 902.798 543.614 909.025 547.111 910.012C549.502 909.361 552.134 907.378 554.105 905.936L555.288 904.923C552.994 904.525 550.487 904.463 548.321 905.446C547.599 905.774 546.948 906.261 546.209 906.547C545.597 905.436 544.803 901.838 544.625 901.68C543.617 900.793 540.985 900.325 539.677 899.646C541.474 896.318 540.847 894.16 541.395 890.476Z" fill="#FFE603" fill-opacity="0.2"/>
<path d="M776.897 1011.59C774.443 1011.56 773.016 1007.28 768.532 1006.57C764.509 1005.93 761.54 1008.49 760.237 1012.13C759.684 1013.67 759.807 1016.99 756.951 1016.18C756.061 1015.93 755.092 1014.28 754.55 1013.54C741.428 995.639 735.082 972.002 741.777 950.352C742.654 947.514 745.53 936.315 748.858 943.63C754.957 957.033 766.027 959.031 778.718 953.213L783.54 950.844L779.168 947.459C778.146 946.584 766.99 936.249 771.862 935.156C773.515 934.785 775.807 937.53 776.847 938.557C779.056 940.738 779.575 940.764 782.227 938.695C784.23 937.133 784.883 938.572 786.758 939.822C787.428 937.765 788.464 936.052 790.705 935.454L789.478 933.565C788.957 932.508 790.922 929.296 791.444 927.778C790.416 926.212 786.283 922.49 786.363 921.263L786.388 920.953C786.842 915.413 797.857 926.454 799.511 929.066L801.688 931.964C805.689 927.084 808.181 918.832 807.3 912.635C806.397 906.284 801.674 901.727 796.346 898.652C794.52 897.599 791.419 897.011 792.565 894.317C793.558 893.183 795.322 892.869 796.659 892.296C818.307 883.023 844.575 889.497 863.318 902.412L865.798 904.193C866.887 905.021 867.751 905.843 867.175 907.339C866.395 909.361 859.785 908.477 857.835 914.314C856.641 917.886 858.35 920.457 860.766 922.926C861.718 923.899 863.17 925.004 862.557 926.566C861.775 928.563 859.119 928.099 857.426 928.372C847.546 929.969 844.456 939.916 847.228 948.475C847.531 949.411 848.39 950.762 847.946 951.77C845.977 956.246 838.998 947.476 834.407 955.713C830.632 962.488 831.492 971.953 834.174 979.07C834.534 980.025 835.153 981.139 835.311 982.138C835.51 983.401 833.946 984.383 832.834 984.06C831.318 983.619 829.905 982.807 828.364 982.343C822.639 980.62 815.546 980.084 809.804 981.968C798.173 985.784 805.595 993.207 804.131 995.842C803.041 997.806 801.086 996.612 799.529 996.165C790.521 993.577 781.699 996.033 779.529 1006.22C779.1 1008.23 779.378 1010.91 776.897 1011.59ZM799.004 895.52C801.27 896.919 803.247 898.508 805.136 900.377C813.886 909.035 812.598 922.263 806.444 932.1C805.245 934.015 804.354 934.045 804.608 936.023C805.293 941.373 793.189 952.506 788.08 953.609C784.717 954.335 785.893 953.741 782.566 955.664C768.758 963.648 755.162 961.877 746.869 948.155C738.806 968.725 744.169 992.175 756.757 1009.69C758.423 1006.71 760.603 1003.99 764.026 1003.03C767.815 1001.96 772.57 1002.61 775.446 1005.48C776.46 1000.94 779.026 996.473 783.033 993.962L784.675 993.029C789.411 990.851 794.506 990.796 799.537 991.845C797.182 978.046 812.693 975.672 823.181 977.155C825.407 977.469 827.601 978.012 829.79 978.516C826.492 967.87 826.601 945.356 843.106 948.495C840.809 937.636 843.914 927.392 856.023 924.58C856.186 924.542 856.324 924.52 856.472 924.441C851.334 918.227 853.266 908.922 860.666 905.717C860.819 905.65 860.759 905.688 860.875 905.586C845.766 895.286 827.324 889.431 808.99 892.895L799.004 895.52ZM780.476 943.448C782.602 945.35 786.774 948.517 789.62 949.244C792.798 947.163 799.025 941.229 800.012 937.732C799.361 935.341 797.378 932.709 795.936 930.738L794.923 929.555C794.525 931.849 794.463 934.356 795.446 936.522C795.774 937.244 796.261 937.895 796.547 938.634C795.436 939.246 791.838 940.04 791.68 940.218C790.793 941.226 790.325 943.858 789.647 945.166C786.319 943.369 784.161 943.996 780.476 943.448Z" fill="#FFE603" fill-opacity="0.2"/>
<path d="M1057.25 969.897C1057.28 967.443 1061.56 966.016 1062.27 961.532C1062.91 957.509 1060.35 954.54 1056.72 953.237C1055.17 952.684 1051.85 952.807 1052.66 949.951C1052.91 949.061 1054.56 948.092 1055.3 947.55C1073.2 934.428 1096.84 928.082 1118.49 934.777C1121.33 935.654 1132.53 938.53 1125.21 941.858C1111.81 947.957 1109.81 959.027 1115.63 971.718L1118 976.54L1121.38 972.168C1122.26 971.146 1132.59 959.99 1133.69 964.862C1134.06 966.515 1131.31 968.807 1130.29 969.847C1128.1 972.056 1128.08 972.575 1130.15 975.227C1131.71 977.23 1130.27 977.883 1129.02 979.758C1131.08 980.428 1132.79 981.464 1133.39 983.705L1135.28 982.478C1136.33 981.957 1139.55 983.922 1141.06 984.444C1142.63 983.416 1146.35 979.283 1147.58 979.363L1147.89 979.388C1153.43 979.842 1142.39 990.857 1139.78 992.511L1136.88 994.688C1141.76 998.689 1150.01 1001.18 1156.21 1000.3C1162.56 999.397 1167.12 994.674 1170.19 989.346C1171.24 987.52 1171.83 984.419 1174.53 985.565C1175.66 986.558 1175.97 988.322 1176.55 989.659C1185.82 1011.31 1179.35 1037.58 1166.43 1056.32L1164.65 1058.8C1163.82 1059.89 1163 1060.75 1161.5 1060.17C1159.48 1059.4 1160.37 1052.79 1154.53 1050.83C1150.96 1049.64 1148.39 1051.35 1145.92 1053.77C1144.94 1054.72 1143.84 1056.17 1142.28 1055.56C1140.28 1054.77 1140.74 1052.12 1140.47 1050.43C1138.87 1040.55 1128.93 1037.46 1120.37 1040.23C1119.43 1040.53 1118.08 1041.39 1117.07 1040.95C1112.6 1038.98 1121.37 1032 1113.13 1027.41C1106.35 1023.63 1096.89 1024.49 1089.77 1027.17C1088.82 1027.53 1087.7 1028.15 1086.71 1028.31C1085.44 1028.51 1084.46 1026.95 1084.78 1025.83C1085.22 1024.32 1086.04 1022.91 1086.5 1021.36C1088.22 1015.64 1088.76 1008.55 1086.88 1002.8C1083.06 991.173 1075.64 998.595 1073 997.131C1071.04 996.041 1072.23 994.086 1072.68 992.529C1075.27 983.521 1072.81 974.699 1062.62 972.529C1060.61 972.1 1057.93 972.378 1057.25 969.897ZM1173.32 992.004C1171.92 994.27 1170.33 996.247 1168.47 998.136C1159.81 1006.89 1146.58 1005.6 1136.74 999.444C1134.83 998.245 1134.8 997.354 1132.82 997.608C1127.47 998.293 1116.34 986.189 1115.23 981.08C1114.51 977.717 1115.1 978.893 1113.18 975.566C1105.2 961.758 1106.97 948.162 1120.69 939.869C1100.12 931.806 1076.67 937.169 1059.15 949.757C1062.13 951.423 1064.85 953.603 1065.81 957.026C1066.88 960.815 1066.23 965.57 1063.37 968.446C1067.9 969.46 1072.37 972.026 1074.88 976.033L1075.81 977.675C1077.99 982.411 1078.05 987.506 1077 992.537C1090.8 990.182 1093.17 1005.69 1091.69 1016.18C1091.37 1018.41 1090.83 1020.6 1090.33 1022.79C1100.97 1019.49 1123.49 1019.6 1120.35 1036.11C1131.21 1033.81 1141.45 1036.91 1144.26 1049.02C1144.3 1049.19 1144.32 1049.32 1144.4 1049.47C1150.62 1044.33 1159.92 1046.27 1163.13 1053.67C1163.19 1053.82 1163.15 1053.76 1163.26 1053.87C1173.56 1038.77 1179.41 1020.32 1175.95 1001.99L1173.32 992.004ZM1125.39 973.476C1123.49 975.602 1120.33 979.774 1119.6 982.62C1121.68 985.798 1127.61 992.025 1131.11 993.012C1133.5 992.361 1136.13 990.378 1138.1 988.936L1139.29 987.923C1136.99 987.525 1134.49 987.463 1132.32 988.446C1131.6 988.774 1130.95 989.261 1130.21 989.547C1129.6 988.436 1128.8 984.838 1128.62 984.68C1127.62 983.793 1124.99 983.325 1123.68 982.647C1125.47 979.319 1124.85 977.161 1125.39 973.476Z" fill="#FFE603" fill-opacity="0.2"/>
<path d="M818.897 228.592C816.443 228.561 815.016 224.281 810.532 223.569C806.509 222.93 803.54 225.492 802.237 229.126C801.684 230.669 801.807 233.994 798.951 233.182C798.061 232.929 797.092 231.279 796.55 230.539C783.428 212.639 777.082 189.002 783.777 167.352C784.654 164.514 787.53 153.315 790.858 160.63C796.957 174.033 808.027 176.03 820.718 170.213L825.54 167.844L821.168 164.458C820.146 163.584 808.99 153.249 813.862 152.156C815.515 151.785 817.807 154.53 818.847 155.557C821.056 157.738 821.575 157.764 824.227 155.695C826.23 154.133 826.883 155.571 828.758 156.821C829.428 154.765 830.464 153.052 832.705 152.454L831.478 150.565C830.957 149.508 832.922 146.296 833.444 144.778C832.416 143.212 828.283 139.49 828.363 138.263L828.388 137.953C828.842 132.413 839.857 143.454 841.511 146.066L843.688 148.964C847.689 144.084 850.181 135.832 849.3 129.635C848.397 123.284 843.674 118.727 838.346 115.652C836.52 114.599 833.419 114.011 834.565 111.317C835.558 110.183 837.322 109.869 838.659 109.296C860.307 100.022 886.575 106.497 905.318 119.412L907.798 121.193C908.887 122.021 909.751 122.843 909.175 124.339C908.395 126.361 901.785 125.477 899.835 131.314C898.641 134.885 900.35 137.456 902.766 139.926C903.718 140.899 905.17 142.004 904.557 143.566C903.775 145.563 901.119 145.099 899.426 145.372C889.546 146.969 886.456 156.916 889.228 165.475C889.531 166.411 890.39 167.762 889.946 168.77C887.977 173.246 880.998 164.475 876.407 172.713C872.632 179.488 873.492 188.953 876.174 196.07C876.534 197.025 877.153 198.139 877.311 199.138C877.51 200.401 875.946 201.383 874.834 201.06C873.318 200.619 871.905 199.807 870.364 199.343C864.639 197.62 857.546 197.083 851.804 198.967C840.173 202.784 847.595 210.207 846.131 212.842C845.041 214.806 843.086 213.612 841.529 213.165C832.521 210.577 823.699 213.033 821.529 223.223C821.1 225.234 821.378 227.909 818.897 228.592ZM841.004 112.52C843.27 113.919 845.247 115.508 847.136 117.377C855.886 126.035 854.598 139.262 848.444 149.1C847.245 151.015 846.354 151.045 846.608 153.023C847.293 158.373 835.189 169.506 830.08 170.609C826.717 171.335 827.893 170.741 824.566 172.664C810.758 180.647 797.162 178.877 788.869 165.155C780.806 185.724 786.169 209.174 798.757 226.693C800.423 223.714 802.603 220.994 806.026 220.03C809.815 218.962 814.57 219.614 817.446 222.476C818.46 217.942 821.026 213.473 825.033 210.962L826.675 210.029C831.411 207.851 836.506 207.796 841.537 208.844C839.182 195.046 854.693 192.672 865.181 194.155C867.407 194.469 869.601 195.012 871.79 195.515C868.492 184.87 868.601 162.356 885.106 165.495C882.809 154.636 885.914 144.391 898.023 141.58C898.186 141.542 898.324 141.52 898.472 141.441C893.334 135.227 895.266 125.922 902.666 122.717C902.819 122.65 902.759 122.688 902.875 122.586C887.766 112.286 869.324 106.431 850.99 109.895L841.004 112.52ZM822.476 160.448C824.602 162.35 828.774 165.517 831.62 166.244C834.798 164.163 841.025 158.229 842.012 154.732C841.361 152.341 839.378 149.709 837.936 147.738L836.923 146.555C836.525 148.849 836.463 151.356 837.446 153.522C837.774 154.244 838.261 154.895 838.547 155.634C837.436 156.246 833.838 157.04 833.68 157.218C832.793 158.226 832.325 160.858 831.647 162.166C828.319 160.369 826.161 160.996 822.476 160.448Z" fill="#FFE603" fill-opacity="0.2"/>
<path d="M1113.25 241.897C1113.28 239.443 1117.56 238.016 1118.27 233.532C1118.91 229.509 1116.35 226.54 1112.72 225.237C1111.17 224.684 1107.85 224.807 1108.66 221.951C1108.91 221.061 1110.56 220.092 1111.3 219.55C1129.2 206.428 1152.84 200.082 1174.49 206.777C1177.33 207.654 1188.53 210.53 1181.21 213.858C1167.81 219.957 1165.81 231.027 1171.63 243.718L1174 248.54L1177.38 244.168C1178.26 243.146 1188.59 231.99 1189.69 236.862C1190.06 238.515 1187.31 240.807 1186.29 241.847C1184.1 244.056 1184.08 244.575 1186.15 247.227C1187.71 249.23 1186.27 249.883 1185.02 251.758C1187.08 252.428 1188.79 253.464 1189.39 255.705L1191.28 254.478C1192.33 253.957 1195.55 255.922 1197.06 256.444C1198.63 255.416 1202.35 251.283 1203.58 251.363L1203.89 251.387C1209.43 251.842 1198.39 262.857 1195.78 264.51L1192.88 266.688C1197.76 270.689 1206.01 273.181 1212.21 272.299C1218.56 271.397 1223.12 266.674 1226.19 261.346C1227.24 259.52 1227.83 256.419 1230.53 257.565C1231.66 258.558 1231.97 260.322 1232.55 261.659C1241.82 283.307 1235.35 309.575 1222.43 328.318L1220.65 330.798C1219.82 331.887 1219 332.751 1217.5 332.175C1215.48 331.395 1216.37 324.785 1210.53 322.835C1206.96 321.641 1204.39 323.35 1201.92 325.766C1200.94 326.718 1199.84 328.17 1198.28 327.557C1196.28 326.775 1196.74 324.119 1196.47 322.426C1194.87 312.546 1184.93 309.456 1176.37 312.228C1175.43 312.531 1174.08 313.389 1173.07 312.946C1168.6 310.977 1177.37 303.998 1169.13 299.407C1162.35 295.632 1152.89 296.492 1145.77 299.174C1144.82 299.534 1143.7 300.153 1142.71 300.311C1141.44 300.51 1140.46 298.946 1140.78 297.834C1141.22 296.318 1142.04 294.905 1142.5 293.364C1144.22 287.639 1144.76 280.546 1142.88 274.804C1139.06 263.173 1131.64 270.595 1129 269.131C1127.04 268.041 1128.23 266.086 1128.68 264.529C1131.27 255.521 1128.81 246.699 1118.62 244.529C1116.61 244.1 1113.93 244.378 1113.25 241.897ZM1229.32 264.004C1227.92 266.27 1226.33 268.247 1224.47 270.136C1215.81 278.886 1202.58 277.598 1192.74 271.444C1190.83 270.245 1190.8 269.354 1188.82 269.608C1183.47 270.293 1172.34 258.189 1171.23 253.08C1170.51 249.717 1171.1 250.893 1169.18 247.566C1161.2 233.758 1162.97 220.162 1176.69 211.869C1156.12 203.806 1132.67 209.169 1115.15 221.757C1118.13 223.423 1120.85 225.603 1121.81 229.026C1122.88 232.815 1122.23 237.57 1119.37 240.446C1123.9 241.459 1128.37 244.026 1130.88 248.033L1131.81 249.675C1133.99 254.411 1134.05 259.506 1133 264.537C1146.8 262.182 1149.17 277.693 1147.69 288.181C1147.37 290.407 1146.83 292.601 1146.33 294.79C1156.97 291.491 1179.49 291.601 1176.35 308.106C1187.21 305.809 1197.45 308.914 1200.26 321.023C1200.3 321.186 1200.32 321.324 1200.4 321.472C1206.62 316.334 1215.92 318.266 1219.13 325.666C1219.19 325.819 1219.15 325.759 1219.26 325.875C1229.56 310.766 1235.41 292.324 1231.95 273.99L1229.32 264.004ZM1181.39 245.476C1179.49 247.602 1176.33 251.774 1175.6 254.62C1177.68 257.798 1183.61 264.025 1187.11 265.012C1189.5 264.361 1192.13 262.378 1194.1 260.936L1195.29 259.923C1192.99 259.525 1190.49 259.463 1188.32 260.446C1187.6 260.774 1186.95 261.261 1186.21 261.547C1185.6 260.436 1184.8 256.838 1184.62 256.68C1183.62 255.793 1180.99 255.325 1179.68 254.647C1181.47 251.319 1180.85 249.161 1181.39 245.476Z" fill="#FFE603" fill-opacity="0.2"/>
<path d="M1696.25 145.897C1696.28 143.443 1700.56 142.016 1701.27 137.532C1701.91 133.509 1699.35 130.54 1695.72 129.237C1694.17 128.684 1690.85 128.807 1691.66 125.951C1691.91 125.061 1693.56 124.092 1694.3 123.55C1712.2 110.428 1735.84 104.082 1757.49 110.777C1760.33 111.654 1771.53 114.53 1764.21 117.858C1750.81 123.957 1748.81 135.027 1754.63 147.718L1757 152.54L1760.38 148.168C1761.26 147.146 1771.59 135.99 1772.69 140.862C1773.06 142.515 1770.31 144.807 1769.29 145.847C1767.1 148.056 1767.08 148.575 1769.15 151.227C1770.71 153.23 1769.27 153.883 1768.02 155.758C1770.08 156.428 1771.79 157.464 1772.39 159.705L1774.28 158.478C1775.33 157.957 1778.55 159.922 1780.06 160.444C1781.63 159.416 1785.35 155.283 1786.58 155.363L1786.89 155.388C1792.43 155.842 1781.39 166.857 1778.78 168.511L1775.88 170.688C1780.76 174.689 1789.01 177.181 1795.21 176.3C1801.56 175.397 1806.12 170.674 1809.19 165.346C1810.24 163.52 1810.83 160.419 1813.53 161.565C1814.66 162.558 1814.97 164.322 1815.55 165.659C1824.82 187.307 1818.35 213.575 1805.43 232.318L1803.65 234.798C1802.82 235.887 1802 236.751 1800.5 236.175C1798.48 235.395 1799.37 228.785 1793.53 226.835C1789.96 225.641 1787.39 227.35 1784.92 229.766C1783.94 230.718 1782.84 232.17 1781.28 231.557C1779.28 230.775 1779.74 228.119 1779.47 226.426C1777.87 216.546 1767.93 213.456 1759.37 216.228C1758.43 216.531 1757.08 217.39 1756.07 216.946C1751.6 214.977 1760.37 207.998 1752.13 203.407C1745.35 199.632 1735.89 200.492 1728.77 203.174C1727.82 203.534 1726.7 204.153 1725.71 204.311C1724.44 204.51 1723.46 202.946 1723.78 201.834C1724.22 200.318 1725.04 198.905 1725.5 197.364C1727.22 191.639 1727.76 184.546 1725.88 178.804C1722.06 167.173 1714.64 174.595 1712 173.131C1710.04 172.041 1711.23 170.086 1711.68 168.529C1714.27 159.521 1711.81 150.699 1701.62 148.529C1699.61 148.1 1696.93 148.378 1696.25 145.897ZM1812.32 168.004C1810.92 170.27 1809.33 172.247 1807.47 174.136C1798.81 182.886 1785.58 181.598 1775.74 175.444C1773.83 174.245 1773.8 173.354 1771.82 173.608C1766.47 174.293 1755.34 162.189 1754.23 157.08C1753.51 153.717 1754.1 154.893 1752.18 151.566C1744.2 137.758 1745.97 124.162 1759.69 115.869C1739.12 107.806 1715.67 113.169 1698.15 125.757C1701.13 127.423 1703.85 129.603 1704.81 133.026C1705.88 136.815 1705.23 141.57 1702.37 144.446C1706.9 145.46 1711.37 148.026 1713.88 152.033L1714.81 153.675C1716.99 158.411 1717.05 163.506 1716 168.537C1729.8 166.182 1732.17 181.693 1730.69 192.181C1730.37 194.407 1729.83 196.601 1729.33 198.79C1739.97 195.492 1762.49 195.601 1759.35 212.106C1770.21 209.809 1780.45 212.914 1783.26 225.023C1783.3 225.186 1783.32 225.324 1783.4 225.472C1789.62 220.334 1798.92 222.266 1802.13 229.666C1802.19 229.819 1802.15 229.759 1802.26 229.875C1812.56 214.766 1818.41 196.324 1814.95 177.99L1812.32 168.004ZM1764.39 149.476C1762.49 151.602 1759.33 155.774 1758.6 158.62C1760.68 161.798 1766.61 168.025 1770.11 169.012C1772.5 168.361 1775.13 166.378 1777.1 164.936L1778.29 163.923C1775.99 163.525 1773.49 163.463 1771.32 164.446C1770.6 164.774 1769.95 165.261 1769.21 165.547C1768.6 164.436 1767.8 160.838 1767.62 160.68C1766.62 159.793 1763.99 159.325 1762.68 158.647C1764.47 155.319 1763.85 153.161 1764.39 149.476Z" fill="#FFE603" fill-opacity="0.2"/>
<path d="M587.251 411.897C587.282 409.443 591.562 408.016 592.274 403.532C592.912 399.509 590.351 396.54 586.716 395.237C585.174 394.684 581.849 394.807 582.661 391.951C582.914 391.061 584.563 390.092 585.304 389.55C603.204 376.428 626.84 370.082 648.491 376.777C651.329 377.654 662.527 380.53 655.213 383.858C641.809 389.957 639.812 401.027 645.63 413.718L647.999 418.54L651.384 414.168C652.259 413.146 662.594 401.99 663.687 406.862C664.058 408.515 661.313 410.807 660.286 411.847C658.105 414.056 658.079 414.575 660.147 417.227C661.71 419.23 660.271 419.883 659.021 421.758C661.077 422.428 662.79 423.464 663.389 425.705L665.278 424.478C666.335 423.957 669.547 425.922 671.064 426.444C672.63 425.416 676.353 421.283 677.58 421.363L677.89 421.388C683.43 421.842 672.388 432.857 669.777 434.511L666.879 436.688C671.758 440.689 680.01 443.181 686.208 442.3C692.559 441.397 697.116 436.674 700.191 431.346C701.244 429.52 701.832 426.419 704.526 427.565C705.66 428.558 705.974 430.322 706.547 431.659C715.82 453.307 709.346 479.575 696.431 498.318L694.65 500.798C693.822 501.887 693 502.751 691.504 502.175C689.482 501.395 690.366 494.785 684.529 492.835C680.957 491.641 678.386 493.35 675.917 495.766C674.944 496.718 673.839 498.17 672.277 497.557C670.279 496.775 670.744 494.119 670.471 492.426C668.874 482.546 658.927 479.456 650.367 482.228C649.432 482.531 648.081 483.39 647.072 482.946C642.597 480.977 651.367 473.998 643.129 469.407C636.355 465.632 626.89 466.492 619.773 469.174C618.818 469.534 617.704 470.153 616.705 470.311C615.441 470.51 614.46 468.946 614.783 467.834C615.224 466.318 616.036 464.905 616.499 463.364C618.223 457.639 618.759 450.546 616.875 444.804C613.058 433.173 605.636 440.595 603.001 439.131C601.036 438.041 602.231 436.086 602.678 434.529C605.266 425.521 602.81 416.699 592.619 414.529C590.609 414.1 587.934 414.378 587.251 411.897ZM703.323 434.004C701.924 436.27 700.335 438.247 698.466 440.136C689.808 448.886 676.58 447.598 666.743 441.444C664.827 440.245 664.798 439.354 662.819 439.608C657.469 440.293 646.337 428.189 645.234 423.08C644.507 419.717 645.102 420.893 643.178 417.566C635.195 403.758 636.966 390.162 650.688 381.869C630.118 373.806 606.668 379.169 589.15 391.757C592.129 393.423 594.848 395.603 595.813 399.026C596.88 402.815 596.229 407.57 593.367 410.446C597.9 411.46 602.369 414.026 604.881 418.033L605.813 419.675C607.992 424.411 608.047 429.506 606.998 434.537C620.797 432.182 623.171 447.693 621.688 458.181C621.374 460.407 620.831 462.601 620.327 464.79C630.973 461.492 653.487 461.601 650.347 478.106C661.206 475.809 671.451 478.914 674.263 491.023C674.301 491.186 674.322 491.324 674.402 491.472C680.616 486.334 689.921 488.266 693.126 495.666C693.192 495.819 693.155 495.759 693.257 495.875C703.557 480.766 709.412 462.324 705.948 443.99L703.323 434.004ZM655.395 415.476C653.493 417.602 650.326 421.774 649.598 424.62C651.68 427.798 657.614 434.025 661.11 435.012C663.502 434.361 666.134 432.378 668.105 430.936L669.288 429.923C666.994 429.525 664.486 429.463 662.321 430.446C661.599 430.774 660.948 431.261 660.208 431.547C659.597 430.436 658.803 426.838 658.625 426.68C657.617 425.793 654.985 425.325 653.677 424.647C655.474 421.319 654.847 419.161 655.395 415.476Z" fill="#FFE603" fill-opacity="0.2"/>
<path d="M1113.25 616.897C1113.28 614.443 1117.56 613.016 1118.27 608.532C1118.91 604.509 1116.35 601.54 1112.72 600.237C1111.17 599.684 1107.85 599.807 1108.66 596.951C1108.91 596.061 1110.56 595.092 1111.3 594.55C1129.2 581.428 1152.84 575.082 1174.49 581.777C1177.33 582.654 1188.53 585.53 1181.21 588.858C1167.81 594.957 1165.81 606.027 1171.63 618.718L1174 623.54L1177.38 619.168C1178.26 618.146 1188.59 606.99 1189.69 611.862C1190.06 613.515 1187.31 615.807 1186.29 616.847C1184.1 619.056 1184.08 619.575 1186.15 622.227C1187.71 624.23 1186.27 624.883 1185.02 626.758C1187.08 627.428 1188.79 628.464 1189.39 630.705L1191.28 629.478C1192.33 628.957 1195.55 630.922 1197.06 631.444C1198.63 630.416 1202.35 626.283 1203.58 626.363L1203.89 626.388C1209.43 626.842 1198.39 637.857 1195.78 639.511L1192.88 641.688C1197.76 645.689 1206.01 648.181 1212.21 647.3C1218.56 646.397 1223.12 641.674 1226.19 636.346C1227.24 634.52 1227.83 631.419 1230.53 632.565C1231.66 633.558 1231.97 635.322 1232.55 636.659C1241.82 658.307 1235.35 684.575 1222.43 703.318L1220.65 705.798C1219.82 706.887 1219 707.751 1217.5 707.175C1215.48 706.395 1216.37 699.785 1210.53 697.835C1206.96 696.641 1204.39 698.35 1201.92 700.766C1200.94 701.718 1199.84 703.17 1198.28 702.557C1196.28 701.775 1196.74 699.119 1196.47 697.426C1194.87 687.546 1184.93 684.456 1176.37 687.228C1175.43 687.531 1174.08 688.39 1173.07 687.946C1168.6 685.977 1177.37 678.998 1169.13 674.407C1162.35 670.632 1152.89 671.492 1145.77 674.174C1144.82 674.534 1143.7 675.153 1142.71 675.311C1141.44 675.51 1140.46 673.946 1140.78 672.834C1141.22 671.318 1142.04 669.905 1142.5 668.364C1144.22 662.639 1144.76 655.546 1142.88 649.804C1139.06 638.173 1131.64 645.595 1129 644.131C1127.04 643.041 1128.23 641.086 1128.68 639.529C1131.27 630.521 1128.81 621.699 1118.62 619.529C1116.61 619.1 1113.93 619.378 1113.25 616.897ZM1229.32 639.004C1227.92 641.27 1226.33 643.247 1224.47 645.136C1215.81 653.886 1202.58 652.598 1192.74 646.444C1190.83 645.245 1190.8 644.354 1188.82 644.608C1183.47 645.293 1172.34 633.189 1171.23 628.08C1170.51 624.717 1171.1 625.893 1169.18 622.566C1161.2 608.758 1162.97 595.162 1176.69 586.869C1156.12 578.806 1132.67 584.169 1115.15 596.757C1118.13 598.423 1120.85 600.603 1121.81 604.026C1122.88 607.815 1122.23 612.57 1119.37 615.446C1123.9 616.46 1128.37 619.026 1130.88 623.033L1131.81 624.675C1133.99 629.411 1134.05 634.506 1133 639.537C1146.8 637.182 1149.17 652.693 1147.69 663.181C1147.37 665.407 1146.83 667.601 1146.33 669.79C1156.97 666.492 1179.49 666.601 1176.35 683.106C1187.21 680.809 1197.45 683.914 1200.26 696.023C1200.3 696.186 1200.32 696.324 1200.4 696.472C1206.62 691.334 1215.92 693.266 1219.13 700.666C1219.19 700.819 1219.15 700.759 1219.26 700.875C1229.56 685.766 1235.41 667.324 1231.95 648.99L1229.32 639.004ZM1181.39 620.476C1179.49 622.602 1176.33 626.774 1175.6 629.62C1177.68 632.798 1183.61 639.025 1187.11 640.012C1189.5 639.361 1192.13 637.378 1194.1 635.936L1195.29 634.923C1192.99 634.525 1190.49 634.463 1188.32 635.446C1187.6 635.774 1186.95 636.261 1186.21 636.547C1185.6 635.436 1184.8 631.838 1184.62 631.68C1183.62 630.793 1180.99 630.325 1179.68 629.647C1181.47 626.319 1180.85 624.161 1181.39 620.476Z" fill="#FFE603" fill-opacity="0.2"/>
<path d="M180.897 629.592C178.443 629.561 177.016 625.281 172.532 624.569C168.509 623.93 165.54 626.492 164.237 630.126C163.684 631.669 163.807 634.994 160.951 634.182C160.061 633.929 159.092 632.279 158.55 631.539C145.428 613.639 139.082 590.002 145.777 568.352C146.654 565.514 149.53 554.315 152.858 561.63C158.957 575.033 170.027 577.03 182.718 571.213L187.54 568.844L183.168 565.458C182.146 564.584 170.99 554.249 175.862 553.156C177.515 552.785 179.807 555.53 180.847 556.557C183.056 558.738 183.575 558.764 186.227 556.695C188.23 555.133 188.883 556.571 190.758 557.821C191.428 555.765 192.464 554.052 194.705 553.454L193.478 551.565C192.957 550.508 194.922 547.296 195.444 545.778C194.416 544.212 190.283 540.49 190.363 539.263L190.387 538.953C190.842 533.413 201.857 544.454 203.511 547.065L205.688 549.964C209.689 545.084 212.181 536.832 211.3 530.635C210.397 524.284 205.674 519.727 200.346 516.652C198.52 515.599 195.419 515.011 196.565 512.317C197.558 511.183 199.322 510.869 200.659 510.296C222.307 501.022 248.575 507.497 267.318 520.412L269.798 522.193C270.887 523.021 271.751 523.843 271.175 525.339C270.395 527.361 263.785 526.477 261.835 532.314C260.641 535.885 262.35 538.456 264.766 540.926C265.718 541.899 267.17 543.004 266.557 544.566C265.775 546.563 263.119 546.099 261.426 546.372C251.546 547.969 248.456 557.916 251.228 566.475C251.531 567.411 252.39 568.762 251.946 569.77C249.977 574.246 242.998 565.475 238.407 573.713C234.632 580.488 235.492 589.953 238.174 597.07C238.534 598.025 239.153 599.139 239.311 600.138C239.51 601.401 237.946 602.383 236.834 602.06C235.318 601.619 233.905 600.807 232.364 600.343C226.639 598.62 219.546 598.083 213.804 599.967C202.173 603.784 209.595 611.207 208.131 613.842C207.041 615.806 205.086 614.612 203.529 614.165C194.521 611.577 185.699 614.033 183.529 624.223C183.1 626.234 183.378 628.909 180.897 629.592ZM203.004 513.52C205.27 514.919 207.247 516.508 209.136 518.377C217.886 527.035 216.598 540.262 210.444 550.1C209.245 552.015 208.354 552.045 208.608 554.023C209.293 559.373 197.189 570.506 192.08 571.609C188.717 572.335 189.893 571.741 186.566 573.664C172.758 581.647 159.162 579.877 150.869 566.154C142.806 586.724 148.169 610.174 160.757 627.692C162.423 624.713 164.603 621.994 168.026 621.03C171.815 619.962 176.57 620.614 179.446 623.476C180.459 618.942 183.026 614.473 187.033 611.962L188.675 611.029C193.411 608.85 198.506 608.796 203.537 609.844C201.182 596.046 216.693 593.672 227.181 595.154C229.407 595.469 231.601 596.012 233.79 596.515C230.492 585.87 230.601 563.356 247.106 566.495C244.809 555.636 247.914 545.391 260.023 542.58C260.186 542.542 260.324 542.52 260.472 542.441C255.334 536.227 257.266 526.922 264.666 523.717C264.819 523.65 264.759 523.688 264.875 523.586C249.766 513.286 231.324 507.431 212.99 510.895L203.004 513.52ZM184.476 561.448C186.602 563.35 190.774 566.517 193.62 567.244C196.798 565.163 203.025 559.229 204.012 555.732C203.361 553.341 201.378 550.709 199.936 548.738L198.923 547.555C198.525 549.849 198.463 552.356 199.446 554.522C199.774 555.244 200.261 555.895 200.547 556.634C199.436 557.246 195.838 558.04 195.68 558.218C194.793 559.226 194.325 561.857 193.647 563.166C190.319 561.368 188.161 561.996 184.476 561.448Z" fill="#FFE603" fill-opacity="0.2"/>
<path d="M1697.25 385.897C1697.28 383.443 1701.56 382.016 1702.27 377.532C1702.91 373.509 1700.35 370.54 1696.72 369.237C1695.17 368.684 1691.85 368.807 1692.66 365.951C1692.91 365.061 1694.56 364.092 1695.3 363.55C1713.2 350.428 1736.84 344.082 1758.49 350.777C1761.33 351.654 1772.53 354.53 1765.21 357.858C1751.81 363.957 1749.81 375.027 1755.63 387.718L1758 392.54L1761.38 388.168C1762.26 387.146 1772.59 375.99 1773.69 380.862C1774.06 382.515 1771.31 384.807 1770.29 385.847C1768.1 388.056 1768.08 388.575 1770.15 391.227C1771.71 393.23 1770.27 393.883 1769.02 395.758C1771.08 396.428 1772.79 397.464 1773.39 399.705L1775.28 398.478C1776.33 397.957 1779.55 399.922 1781.06 400.444C1782.63 399.416 1786.35 395.283 1787.58 395.363L1787.89 395.388C1793.43 395.842 1782.39 406.857 1779.78 408.511L1776.88 410.688C1781.76 414.689 1790.01 417.181 1796.21 416.3C1802.56 415.397 1807.12 410.674 1810.19 405.346C1811.24 403.52 1811.83 400.419 1814.53 401.565C1815.66 402.558 1815.97 404.322 1816.55 405.659C1825.82 427.307 1819.35 453.575 1806.43 472.318L1804.65 474.798C1803.82 475.887 1803 476.751 1801.5 476.175C1799.48 475.395 1800.37 468.785 1794.53 466.835C1790.96 465.641 1788.39 467.35 1785.92 469.766C1784.94 470.718 1783.84 472.17 1782.28 471.557C1780.28 470.775 1780.74 468.119 1780.47 466.426C1778.87 456.546 1768.93 453.456 1760.37 456.228C1759.43 456.531 1758.08 457.39 1757.07 456.946C1752.6 454.977 1761.37 447.998 1753.13 443.407C1746.35 439.632 1736.89 440.492 1729.77 443.174C1728.82 443.534 1727.7 444.153 1726.71 444.311C1725.44 444.51 1724.46 442.946 1724.78 441.834C1725.22 440.318 1726.04 438.905 1726.5 437.364C1728.22 431.639 1728.76 424.546 1726.88 418.804C1723.06 407.173 1715.64 414.595 1713 413.131C1711.04 412.041 1712.23 410.086 1712.68 408.529C1715.27 399.521 1712.81 390.699 1702.62 388.529C1700.61 388.1 1697.93 388.378 1697.25 385.897ZM1813.32 408.004C1811.92 410.27 1810.33 412.247 1808.47 414.136C1799.81 422.886 1786.58 421.598 1776.74 415.444C1774.83 414.245 1774.8 413.354 1772.82 413.608C1767.47 414.293 1756.34 402.189 1755.23 397.08C1754.51 393.717 1755.1 394.893 1753.18 391.566C1745.2 377.758 1746.97 364.162 1760.69 355.869C1740.12 347.806 1716.67 353.169 1699.15 365.757C1702.13 367.423 1704.85 369.603 1705.81 373.026C1706.88 376.815 1706.23 381.57 1703.37 384.446C1707.9 385.46 1712.37 388.026 1714.88 392.033L1715.81 393.675C1717.99 398.411 1718.05 403.506 1717 408.537C1730.8 406.182 1733.17 421.693 1731.69 432.181C1731.37 434.407 1730.83 436.601 1730.33 438.79C1740.97 435.492 1763.49 435.601 1760.35 452.106C1771.21 449.809 1781.45 452.914 1784.26 465.023C1784.3 465.186 1784.32 465.324 1784.4 465.472C1790.62 460.334 1799.92 462.266 1803.13 469.666C1803.19 469.819 1803.15 469.759 1803.26 469.875C1813.56 454.766 1819.41 436.324 1815.95 417.99L1813.32 408.004ZM1765.39 389.476C1763.49 391.602 1760.33 395.774 1759.6 398.62C1761.68 401.798 1767.61 408.025 1771.11 409.012C1773.5 408.361 1776.13 406.378 1778.1 404.936L1779.29 403.923C1776.99 403.525 1774.49 403.463 1772.32 404.446C1771.6 404.774 1770.95 405.261 1770.21 405.547C1769.6 404.436 1768.8 400.838 1768.62 400.68C1767.62 399.793 1764.99 399.325 1763.68 398.647C1765.47 395.319 1764.85 393.161 1765.39 389.476Z" fill="#FFE603" fill-opacity="0.2"/>
<path d="M1406.4 709.327C1404.69 707.57 1406.71 703.534 1404.04 699.86C1401.65 696.564 1397.74 696.276 1394.25 697.924C1392.76 698.624 1390.5 701.062 1389.06 698.469C1388.6 697.661 1389.09 695.809 1389.23 694.902C1392.6 672.966 1404.83 651.765 1424.87 641.19C1427.5 639.804 1437.45 633.918 1434.63 641.444C1429.47 655.234 1435.89 664.474 1448.97 669.334L1454.06 671.069L1453.36 665.583C1453.26 664.242 1452.68 649.046 1456.89 651.718C1458.32 652.625 1458 656.186 1458.01 657.648C1458.03 660.752 1458.38 661.137 1461.72 661.55C1464.24 661.862 1463.69 663.341 1464.13 665.55C1466.05 664.57 1468 664.092 1470.01 665.253L1470.47 663.05C1470.85 661.934 1474.51 661.052 1475.96 660.348C1476.34 658.514 1476.05 652.959 1476.97 652.148L1477.21 651.946C1481.45 648.35 1481.43 663.947 1480.75 666.962L1480.24 670.551C1486.52 669.93 1494.12 665.857 1497.88 660.852C1501.73 655.723 1501.61 649.161 1500.02 643.219C1499.47 641.183 1497.69 638.575 1500.41 637.48C1501.91 637.38 1503.38 638.406 1504.73 638.946C1526.6 647.696 1540.59 670.848 1544.72 693.234L1545.21 696.247C1545.39 697.602 1545.42 698.795 1543.96 699.445C1541.98 700.324 1537.93 695.024 1532.42 697.773C1529.05 699.454 1528.44 702.48 1528.41 705.935C1528.39 707.296 1528.64 709.104 1527.1 709.776C1525.13 710.634 1523.58 708.428 1522.19 707.424C1514.08 701.567 1504.86 706.416 1500.77 714.428C1500.32 715.304 1499.97 716.867 1498.94 717.266C1494.39 719.038 1495.65 707.902 1486.58 710.481C1479.12 712.602 1473.04 719.903 1469.9 726.832C1469.48 727.761 1469.13 728.987 1468.54 729.804C1467.78 730.839 1465.98 730.427 1465.43 729.412C1464.67 728.029 1464.24 726.455 1463.48 725.038C1460.65 719.771 1456.01 714.376 1450.62 711.648C1439.7 706.122 1439.7 716.619 1436.8 717.448C1434.64 718.065 1434.1 715.839 1433.32 714.422C1428.78 706.222 1420.8 701.721 1412.06 707.392C1410.34 708.51 1408.64 710.599 1406.4 709.327ZM1504.11 642.884C1504.73 645.476 1505 647.997 1505.01 650.654C1505.08 662.963 1494.81 671.406 1483.51 674.01C1481.3 674.517 1480.65 673.908 1479.43 675.486C1476.14 679.754 1459.7 679.067 1455.31 676.234C1452.42 674.37 1453.67 674.781 1449.96 673.789C1434.55 669.67 1426.19 658.804 1430.03 643.237C1409.78 652.081 1396.99 672.455 1393.51 693.743C1396.79 692.814 1400.26 692.433 1403.36 694.171C1406.79 696.096 1409.69 699.919 1409.7 703.976C1413.63 701.487 1418.6 700.142 1423.21 701.2L1425.03 701.701C1429.92 703.51 1433.56 707.073 1436.38 711.372C1444.47 699.95 1457.12 709.239 1463.48 717.704C1464.84 719.5 1466 721.436 1467.19 723.339C1472.39 713.479 1488.39 697.637 1497.84 711.527C1503.89 702.225 1513.33 697.177 1523.88 703.751C1524.02 703.839 1524.14 703.922 1524.3 703.97C1525.06 695.943 1533 690.729 1540.5 693.695C1540.66 693.757 1540.59 693.741 1540.74 693.751C1537.34 675.784 1528.44 658.603 1513.03 648.089L1504.11 642.884ZM1457.12 663.673C1457.28 666.521 1457.99 671.71 1459.49 674.237C1463.21 675.012 1471.81 675.22 1474.98 673.445C1476.21 671.294 1476.67 668.03 1477.04 665.617L1477.16 664.065C1475.26 665.405 1473.44 667.134 1472.6 669.361C1472.32 670.103 1472.21 670.907 1471.89 671.633C1470.67 671.28 1467.56 669.297 1467.33 669.312C1465.99 669.397 1463.8 670.927 1462.39 671.372C1461.31 667.748 1459.34 666.665 1457.12 663.673Z" fill="#FFE603" fill-opacity="0.2"/>
<path d="M1679.9 676.592C1677.44 676.561 1676.02 672.281 1671.53 671.569C1667.51 670.93 1664.54 673.492 1663.24 677.126C1662.68 678.669 1662.81 681.994 1659.95 681.182C1659.06 680.929 1658.09 679.279 1657.55 678.539C1644.43 660.639 1638.08 637.002 1644.78 615.352C1645.65 612.514 1648.53 601.315 1651.86 608.63C1657.96 622.033 1669.03 624.03 1681.72 618.213L1686.54 615.844L1682.17 612.458C1681.15 611.584 1669.99 601.249 1674.86 600.156C1676.51 599.785 1678.81 602.53 1679.85 603.557C1682.06 605.738 1682.57 605.764 1685.23 603.695C1687.23 602.133 1687.88 603.571 1689.76 604.821C1690.43 602.765 1691.46 601.052 1693.71 600.454L1692.48 598.565C1691.96 597.508 1693.92 594.296 1694.44 592.778C1693.42 591.212 1689.28 587.49 1689.36 586.263L1689.39 585.953C1689.84 580.413 1700.86 591.454 1702.51 594.065L1704.69 596.964C1708.69 592.084 1711.18 583.832 1710.3 577.635C1709.4 571.284 1704.67 566.727 1699.35 563.652C1697.52 562.599 1694.42 562.011 1695.57 559.317C1696.56 558.183 1698.32 557.869 1699.66 557.296C1721.31 548.022 1747.58 554.497 1766.32 567.412L1768.8 569.193C1769.89 570.021 1770.75 570.843 1770.17 572.339C1769.4 574.361 1762.79 573.477 1760.83 579.314C1759.64 582.885 1761.35 585.456 1763.77 587.926C1764.72 588.899 1766.17 590.004 1765.56 591.566C1764.77 593.563 1762.12 593.099 1760.43 593.372C1750.55 594.969 1747.46 604.916 1750.23 613.475C1750.53 614.411 1751.39 615.762 1750.95 616.77C1748.98 621.246 1742 612.475 1737.41 620.713C1733.63 627.488 1734.49 636.953 1737.17 644.07C1737.53 645.025 1738.15 646.139 1738.31 647.138C1738.51 648.401 1736.95 649.383 1735.83 649.06C1734.32 648.619 1732.91 647.807 1731.36 647.343C1725.64 645.62 1718.55 645.083 1712.8 646.967C1701.17 650.784 1708.59 658.207 1707.13 660.842C1706.04 662.806 1704.09 661.612 1702.53 661.165C1693.52 658.577 1684.7 661.033 1682.53 671.223C1682.1 673.234 1682.38 675.909 1679.9 676.592ZM1702 560.52C1704.27 561.919 1706.25 563.508 1708.14 565.377C1716.89 574.035 1715.6 587.262 1709.44 597.1C1708.25 599.015 1707.35 599.045 1707.61 601.023C1708.29 606.373 1696.19 617.506 1691.08 618.609C1687.72 619.335 1688.89 618.741 1685.57 620.664C1671.76 628.647 1658.16 626.877 1649.87 613.154C1641.81 633.724 1647.17 657.174 1659.76 674.692C1661.42 671.713 1663.6 668.994 1667.03 668.03C1670.81 666.962 1675.57 667.614 1678.45 670.476C1679.46 665.942 1682.03 661.473 1686.03 658.962L1687.68 658.029C1692.41 655.85 1697.51 655.796 1702.54 656.844C1700.18 643.046 1715.69 640.672 1726.18 642.154C1728.41 642.469 1730.6 643.012 1732.79 643.515C1729.49 632.87 1729.6 610.356 1746.11 613.495C1743.81 602.636 1746.91 592.391 1759.02 589.58C1759.19 589.542 1759.32 589.52 1759.47 589.441C1754.33 583.227 1756.27 573.922 1763.67 570.717C1763.82 570.65 1763.76 570.688 1763.87 570.586C1748.77 560.286 1730.32 554.431 1711.99 557.895L1702 560.52ZM1683.48 608.448C1685.6 610.35 1689.77 613.517 1692.62 614.244C1695.8 612.163 1702.03 606.229 1703.01 602.732C1702.36 600.341 1700.38 597.709 1698.94 595.738L1697.92 594.555C1697.53 596.849 1697.46 599.356 1698.45 601.522C1698.77 602.244 1699.26 602.895 1699.55 603.634C1698.44 604.246 1694.84 605.04 1694.68 605.218C1693.79 606.226 1693.33 608.857 1692.65 610.166C1689.32 608.368 1687.16 608.996 1683.48 608.448Z" fill="#FFE603" fill-opacity="0.2"/>
<path d="M1661.25 875.897C1661.28 873.443 1665.56 872.016 1666.27 867.532C1666.91 863.509 1664.35 860.54 1660.72 859.237C1659.17 858.684 1655.85 858.807 1656.66 855.951C1656.91 855.061 1658.56 854.092 1659.3 853.55C1677.2 840.428 1700.84 834.082 1722.49 840.777C1725.33 841.654 1736.53 844.53 1729.21 847.858C1715.81 853.957 1713.81 865.027 1719.63 877.718L1722 882.54L1725.38 878.168C1726.26 877.146 1736.59 865.99 1737.69 870.862C1738.06 872.515 1735.31 874.807 1734.29 875.847C1732.1 878.056 1732.08 878.575 1734.15 881.227C1735.71 883.23 1734.27 883.883 1733.02 885.758C1735.08 886.428 1736.79 887.464 1737.39 889.705L1739.28 888.478C1740.33 887.957 1743.55 889.922 1745.06 890.444C1746.63 889.416 1750.35 885.283 1751.58 885.363L1751.89 885.388C1757.43 885.842 1746.39 896.857 1743.78 898.511L1740.88 900.688C1745.76 904.689 1754.01 907.181 1760.21 906.3C1766.56 905.397 1771.12 900.674 1774.19 895.346C1775.24 893.52 1775.83 890.419 1778.53 891.565C1779.66 892.558 1779.97 894.322 1780.55 895.659C1789.82 917.307 1783.35 943.575 1770.43 962.318L1768.65 964.798C1767.82 965.887 1767 966.751 1765.5 966.175C1763.48 965.395 1764.37 958.785 1758.53 956.835C1754.96 955.641 1752.39 957.35 1749.92 959.766C1748.94 960.718 1747.84 962.17 1746.28 961.557C1744.28 960.775 1744.74 958.119 1744.47 956.426C1742.87 946.546 1732.93 943.456 1724.37 946.228C1723.43 946.531 1722.08 947.39 1721.07 946.946C1716.6 944.977 1725.37 937.998 1717.13 933.407C1710.35 929.632 1700.89 930.492 1693.77 933.174C1692.82 933.534 1691.7 934.153 1690.71 934.311C1689.44 934.51 1688.46 932.946 1688.78 931.834C1689.22 930.318 1690.04 928.905 1690.5 927.364C1692.22 921.639 1692.76 914.546 1690.88 908.804C1687.06 897.173 1679.64 904.595 1677 903.131C1675.04 902.041 1676.23 900.086 1676.68 898.529C1679.27 889.521 1676.81 880.699 1666.62 878.529C1664.61 878.1 1661.93 878.378 1661.25 875.897ZM1777.32 898.004C1775.92 900.27 1774.33 902.247 1772.47 904.136C1763.81 912.886 1750.58 911.598 1740.74 905.444C1738.83 904.245 1738.8 903.354 1736.82 903.608C1731.47 904.293 1720.34 892.189 1719.23 887.08C1718.51 883.717 1719.1 884.893 1717.18 881.566C1709.2 867.758 1710.97 854.162 1724.69 845.869C1704.12 837.806 1680.67 843.169 1663.15 855.757C1666.13 857.423 1668.85 859.603 1669.81 863.026C1670.88 866.815 1670.23 871.57 1667.37 874.446C1671.9 875.46 1676.37 878.026 1678.88 882.033L1679.81 883.675C1681.99 888.411 1682.05 893.506 1681 898.537C1694.8 896.182 1697.17 911.693 1695.69 922.181C1695.37 924.407 1694.83 926.601 1694.33 928.79C1704.97 925.492 1727.49 925.601 1724.35 942.106C1735.21 939.809 1745.45 942.914 1748.26 955.023C1748.3 955.186 1748.32 955.324 1748.4 955.472C1754.62 950.334 1763.92 952.266 1767.13 959.666C1767.19 959.819 1767.15 959.759 1767.26 959.875C1777.56 944.766 1783.41 926.324 1779.95 907.99L1777.32 898.004ZM1729.39 879.476C1727.49 881.602 1724.33 885.774 1723.6 888.62C1725.68 891.798 1731.61 898.025 1735.11 899.012C1737.5 898.361 1740.13 896.378 1742.1 894.936L1743.29 893.923C1740.99 893.525 1738.49 893.463 1736.32 894.446C1735.6 894.774 1734.95 895.261 1734.21 895.547C1733.6 894.436 1732.8 890.838 1732.62 890.68C1731.62 889.793 1728.99 889.325 1727.68 888.647C1729.47 885.319 1728.85 883.161 1729.39 879.476Z" fill="#FFE603" fill-opacity="0.2"/>
<path d="M405.405 692.327C403.692 690.57 405.709 686.534 403.042 682.86C400.648 679.564 396.737 679.276 393.246 680.924C391.764 681.624 389.501 684.062 388.055 681.469C387.605 680.661 388.086 678.809 388.226 677.902C391.605 655.966 403.831 634.765 423.874 624.19C426.501 622.804 436.453 616.918 433.634 624.444C428.469 638.234 434.885 647.474 447.972 652.334L453.057 654.069L452.359 648.583C452.255 647.242 451.675 632.046 455.893 634.718C457.323 635.625 457.004 639.186 457.013 640.648C457.033 643.752 457.381 644.137 460.719 644.55C463.241 644.862 462.685 646.341 463.127 648.55C465.054 647.57 466.998 647.092 469.006 648.253L469.474 646.05C469.853 644.934 473.514 644.052 474.956 643.348C475.337 641.514 475.047 635.959 475.97 635.148L476.207 634.946C480.446 631.35 480.427 646.947 479.75 649.962L479.24 653.551C485.52 652.93 493.116 648.857 496.876 643.852C500.728 638.723 500.611 632.161 499.017 626.219C498.471 624.183 496.694 621.575 499.41 620.48C500.913 620.38 502.383 621.406 503.733 621.946C525.598 630.696 539.595 653.848 543.715 676.234L544.21 679.247C544.394 680.602 544.424 681.795 542.959 682.445C540.978 683.324 536.929 678.024 531.422 680.773C528.053 682.454 527.443 685.48 527.405 688.935C527.39 690.296 527.636 692.104 526.098 692.776C524.132 693.634 522.583 691.428 521.192 690.424C513.077 684.567 503.858 689.416 499.766 697.428C499.319 698.304 498.971 699.867 497.944 700.266C493.387 702.038 494.653 690.902 485.583 693.481C478.123 695.602 472.038 702.903 468.902 709.832C468.481 710.761 468.132 711.987 467.537 712.804C466.784 713.839 464.984 713.427 464.426 712.412C463.666 711.029 463.241 709.455 462.479 708.038C459.649 702.771 455.013 697.376 449.621 694.648C438.698 689.122 438.697 699.619 435.799 700.448C433.639 701.065 433.101 698.839 432.317 697.422C427.777 689.222 419.802 684.721 411.062 690.392C409.337 691.51 407.642 693.599 405.405 692.327ZM503.112 625.884C503.725 628.476 503.999 630.997 504.013 633.654C504.078 645.963 493.814 654.406 482.507 657.01C480.305 657.517 479.654 656.908 478.434 658.486C475.136 662.754 458.705 662.067 454.312 659.234C451.421 657.37 452.673 657.781 448.96 656.789C433.551 652.67 425.189 641.804 429.028 626.237C408.782 635.081 395.993 655.455 392.506 676.743C395.791 675.814 399.255 675.433 402.358 677.171C405.792 679.096 408.693 682.919 408.703 686.976C412.626 684.487 417.6 683.142 422.21 684.2L424.03 684.701C428.92 686.51 432.561 690.073 435.377 694.372C443.469 682.95 456.115 692.239 462.483 700.704C463.835 702.5 465.003 704.436 466.194 706.339C471.389 696.479 487.387 680.637 496.837 694.527C502.892 685.225 512.332 680.177 522.882 686.751C523.024 686.839 523.137 686.922 523.298 686.97C524.058 678.943 532.004 673.729 539.503 676.695C539.658 676.757 539.589 676.741 539.743 676.751C536.343 658.784 527.443 641.603 512.03 631.089L503.112 625.884ZM456.12 646.673C456.278 649.521 456.99 654.71 458.488 657.237C462.207 658.012 470.806 658.22 473.976 656.445C475.207 654.294 475.666 651.03 476.039 648.617L476.16 647.065C474.256 648.405 472.439 650.134 471.603 652.361C471.325 653.103 471.209 653.907 470.888 654.633C469.67 654.28 466.564 652.297 466.327 652.312C464.987 652.397 462.795 653.927 461.39 654.372C460.308 650.748 458.338 649.665 456.12 646.673Z" fill="#FFE603" fill-opacity="0.2"/>
<path d="M1416.9 188.592C1414.44 188.561 1413.02 184.281 1408.53 183.569C1404.51 182.93 1401.54 185.492 1400.24 189.126C1399.68 190.669 1399.81 193.994 1396.95 193.182C1396.06 192.929 1395.09 191.279 1394.55 190.539C1381.43 172.639 1375.08 149.002 1381.78 127.352C1382.65 124.514 1385.53 113.315 1388.86 120.63C1394.96 134.033 1406.03 136.03 1418.72 130.213L1423.54 127.844L1419.17 124.458C1418.15 123.584 1406.99 113.249 1411.86 112.156C1413.51 111.785 1415.81 114.53 1416.85 115.557C1419.06 117.738 1419.57 117.764 1422.23 115.695C1424.23 114.133 1424.88 115.571 1426.76 116.821C1427.43 114.765 1428.46 113.052 1430.71 112.454L1429.48 110.565C1428.96 109.508 1430.92 106.296 1431.44 104.778C1430.42 103.212 1426.28 99.4896 1426.36 98.2626L1426.39 97.9528C1426.84 92.4126 1437.86 103.454 1439.51 106.066L1441.69 108.964C1445.69 104.084 1448.18 95.8323 1447.3 89.6348C1446.4 83.2838 1441.67 78.7265 1436.35 75.6522C1434.52 74.5988 1431.42 74.0108 1432.57 71.3167C1433.56 70.1829 1435.32 69.8689 1436.66 69.296C1458.31 60.0225 1484.58 66.4967 1503.32 79.412L1505.8 81.193C1506.89 82.0206 1507.75 82.8426 1507.17 84.3388C1506.4 86.3611 1499.79 85.4765 1497.83 91.3139C1496.64 94.8855 1498.35 97.4565 1500.77 99.9258C1501.72 100.899 1503.17 102.004 1502.56 103.566C1501.77 105.563 1499.12 105.099 1497.43 105.372C1487.55 106.969 1484.46 116.916 1487.23 125.475C1487.53 126.411 1488.39 127.762 1487.95 128.77C1485.98 133.246 1479 124.475 1474.41 132.713C1470.63 139.488 1471.49 148.953 1474.17 156.07C1474.53 157.025 1475.15 158.139 1475.31 159.138C1475.51 160.401 1473.95 161.383 1472.83 161.06C1471.32 160.619 1469.91 159.807 1468.36 159.343C1462.64 157.62 1455.55 157.083 1449.8 158.967C1438.17 162.784 1445.59 170.207 1444.13 172.842C1443.04 174.806 1441.09 173.612 1439.53 173.165C1430.52 170.577 1421.7 173.033 1419.53 183.223C1419.1 185.234 1419.38 187.909 1416.9 188.592ZM1439 72.5201C1441.27 73.9191 1443.25 75.5079 1445.14 77.3771C1453.89 86.0349 1452.6 99.2625 1446.44 109.1C1445.25 111.015 1444.35 111.045 1444.61 113.023C1445.29 118.373 1433.19 129.506 1428.08 130.609C1424.72 131.335 1425.89 130.741 1422.57 132.664C1408.76 140.647 1395.16 138.877 1386.87 125.155C1378.81 145.724 1384.17 169.174 1396.76 186.693C1398.42 183.714 1400.6 180.994 1404.03 180.03C1407.81 178.962 1412.57 179.614 1415.45 182.476C1416.46 177.942 1419.03 173.473 1423.03 170.962L1424.68 170.029C1429.41 167.851 1434.51 167.796 1439.54 168.844C1437.18 155.046 1452.69 152.672 1463.18 154.155C1465.41 154.469 1467.6 155.012 1469.79 155.515C1466.49 144.87 1466.6 122.356 1483.11 125.495C1480.81 114.636 1483.91 104.391 1496.02 101.58C1496.19 101.542 1496.32 101.52 1496.47 101.441C1491.33 95.2269 1493.27 85.9218 1500.67 82.7168C1500.82 82.6503 1500.76 82.6881 1500.87 82.586C1485.77 72.2861 1467.32 66.4306 1448.99 69.8946L1439 72.5201ZM1420.48 120.448C1422.6 122.35 1426.77 125.517 1429.62 126.244C1432.8 124.163 1439.03 118.229 1440.01 114.732C1439.36 112.341 1437.38 109.709 1435.94 107.738L1434.92 106.555C1434.53 108.849 1434.46 111.356 1435.45 113.522C1435.77 114.244 1436.26 114.895 1436.55 115.634C1435.44 116.246 1431.84 117.04 1431.68 117.218C1430.79 118.226 1430.33 120.858 1429.65 122.166C1426.32 120.369 1424.16 120.996 1420.48 120.448Z" fill="#FFE603" fill-opacity="0.2"/>
</g>
</g>
<defs>
<filter id="filter0_d_74_586" x="-4" y="0" width="1928" height="1088" filterUnits="userSpaceOnUse" color-interpolation-filters="sRGB">
<feFlood flood-opacity="0" result="BackgroundImageFix"/>
<feColorMatrix in="SourceAlpha" type="matrix" values="0 0 0 0 0 0 0 0 0 0 0 0 0 0 0 0 0 0 127 0" result="hardAlpha"/>
<feOffset dy="4"/>
<feGaussianBlur stdDeviation="2"/>
<feComposite in2="hardAlpha" operator="out"/>
<feColorMatrix type="matrix" values="0 0 0 0 0 0 0 0 0 0 0 0 0 0 0 0 0 0 0.25 0"/>
<feBlend mode="normal" in2="BackgroundImageFix" result="effect1_dropShadow_74_586"/>
<feBlend mode="normal" in="SourceGraphic" in2="effect1_dropShadow_74_586" result="shape"/>
</filter>
<clipPath id="clip0_74_586">
<rect width="1920" height="1080" fill="white"/>
</clipPath>
</defs>
</svg>
