<svg width="70" height="70" viewBox="0 0 70 70" fill="none"
  xmlns="http://www.w3.org/2000/svg">
  <circle cx="35" cy="35" r="35" fill="black"/>
  <path d="M27.25 33H29.4219V38.125C29.4219 38.7344 29.276 39.2617 28.9844 39.707C28.6953 40.1497 28.2917 40.4922 27.7734 40.7344C27.2552 40.974 26.6536 41.0938 25.9688 41.0938C25.2786 41.0938 24.6745 40.974 24.1563 40.7344C23.638 40.4922 23.2344 40.1497 22.9453 39.707C22.6589 39.2617 22.5156 38.7344 22.5156 38.125V33H24.6875V37.9375C24.6875 38.1849 24.7422 38.4062 24.8516 38.6016C24.9609 38.7943 25.112 38.9453 25.3047 39.0547C25.5 39.1641 25.7214 39.2187 25.9688 39.2187C26.2188 39.2187 26.4401 39.1641 26.6328 39.0547C26.8255 38.9453 26.9766 38.7943 27.0859 38.6016C27.1953 38.4062 27.25 38.1849 27.25 37.9375V33ZM37.376 33V41H35.5635L32.6729 36.7969H32.626V41H30.4541V33H32.2979L35.1416 37.1875H35.2041V33H37.376ZM46.1533 37C46.1533 37.8906 45.9801 38.6419 45.6338 39.2539C45.2874 39.8633 44.82 40.3255 44.2314 40.6406C43.6429 40.9531 42.9867 41.1094 42.2627 41.1094C41.5335 41.1094 40.8747 40.9518 40.2861 40.6367C39.7002 40.319 39.234 39.8555 38.8877 39.2461C38.5439 38.6341 38.3721 37.8854 38.3721 37C38.3721 36.1094 38.5439 35.3594 38.8877 34.75C39.234 34.138 39.7002 33.6758 40.2861 33.3633C40.8747 33.0482 41.5335 32.8906 42.2627 32.8906C42.9867 32.8906 43.6429 33.0482 44.2314 33.3633C44.82 33.6758 45.2874 34.138 45.6338 34.75C45.9801 35.3594 46.1533 36.1094 46.1533 37ZM43.9189 37C43.9189 36.5208 43.8551 36.1172 43.7275 35.7891C43.6025 35.4583 43.4163 35.2083 43.1689 35.0391C42.9242 34.8672 42.6221 34.7812 42.2627 34.7812C41.9033 34.7812 41.5999 34.8672 41.3525 35.0391C41.1077 35.2083 40.9215 35.4583 40.7939 35.7891C40.6689 36.1172 40.6064 36.5208 40.6064 37C40.6064 37.4792 40.6689 37.8841 40.7939 38.2148C40.9215 38.543 41.1077 38.793 41.3525 38.9648C41.5999 39.1341 41.9033 39.2187 42.2627 39.2187C42.6221 39.2187 42.9242 39.1341 43.1689 38.9648C43.4163 38.793 43.6025 38.543 43.7275 38.2148C43.8551 37.8841 43.9189 37.4792 43.9189 37Z" fill="white"/>
  <path d="M11.3721 44.1088C10.7046 43.4247 11.4903 41.8531 10.451 40.4228C9.51936 39.1386 7.99675 39.026 6.63827 39.6669C6.05914 39.9414 5.17874 40.8895 4.6153 39.88C4.43906 39.566 4.6266 38.8448 4.68113 38.4918C5.99692 29.9488 10.7594 21.6911 18.5652 17.5727C19.5888 17.0321 23.4651 14.7398 22.3658 17.6721C20.3552 23.0418 22.853 26.6411 27.9506 28.5333L29.9312 29.2085L29.658 27.0738C29.6189 26.55 29.3914 20.6331 31.036 21.6718C31.5931 22.0251 31.467 23.4136 31.4725 23.9809C31.4778 25.1923 31.6152 25.3407 32.9155 25.501C33.8967 25.623 33.68 26.1994 33.8521 27.06C34.6039 26.6772 35.3602 26.4916 36.1425 26.9435L36.3251 26.0851C36.4708 25.6525 37.8987 25.3069 38.4582 25.0348C38.6075 24.3193 38.4937 22.1568 38.8545 21.8401L38.9468 21.7616C40.5974 20.361 40.5905 26.4346 40.3273 27.6088L40.1282 29.007C42.5739 28.7649 45.5318 27.179 46.9968 25.2292C48.4968 23.2319 48.4519 20.6755 47.8301 18.3628C47.6164 17.5708 46.925 16.5543 47.9841 16.1264C48.5687 16.0886 49.1399 16.489 49.6678 16.6975C58.183 20.107 63.6356 29.1231 65.2383 37.8418L65.4311 39.015C65.5027 39.5438 65.5137 40.0064 64.9409 40.2598C64.1726 40.604 62.5974 38.5386 60.4494 39.6071C59.1386 40.2625 58.9018 41.4411 58.888 42.7878C58.8797 43.3193 58.9761 44.0215 58.3785 44.2831C57.6102 44.6164 57.0071 43.7599 56.4673 43.3689C53.3059 41.0887 49.7176 42.975 48.1231 46.0952C47.9469 46.4366 47.8119 47.0452 47.4126 47.2022C45.6391 47.8907 46.1321 43.5534 42.5989 44.5585C39.6909 45.3847 37.3226 48.2267 36.0998 50.9254C35.9374 51.2862 35.7997 51.7654 35.5711 52.0821C35.2764 52.4869 34.5769 52.3271 34.3566 51.9306C34.062 51.3936 33.8995 50.7795 33.5993 50.2259C32.4978 48.1771 30.694 46.0759 28.5928 45.0101C24.3389 42.8602 24.3395 46.9475 23.2093 47.2713C22.3694 47.5109 22.1587 46.6448 21.8539 46.0921C20.0865 42.8982 16.9795 41.1462 13.5758 43.3548C12.9041 43.7902 12.2426 44.6048 11.3721 44.1088ZM49.4241 18.2328C49.6625 19.2424 49.7691 20.2246 49.7771 21.2571C49.803 26.0526 45.8044 29.3407 41.3993 30.3552C40.5432 30.551 40.2895 30.3139 39.8142 30.9292C38.5295 32.5911 32.1312 32.3229 30.4186 31.2216C29.2942 30.4938 29.7806 30.6551 28.3356 30.2676C22.3355 28.6627 19.0788 24.4312 20.5733 18.3691C12.6882 21.8134 7.70734 29.748 6.34914 38.0393C7.62858 37.6775 8.97797 37.5287 10.185 38.207C11.5231 38.9558 12.6535 40.4443 12.6579 42.0239C14.1847 41.0556 16.1223 40.5313 17.917 40.9435L18.6253 41.1396C20.5298 41.8435 21.9494 43.2301 23.0457 44.9047C26.1975 40.4558 31.1208 44.0739 33.6021 47.3702C34.1281 48.0724 34.5824 48.8242 35.0478 49.565C37.0692 45.7262 43.3011 39.5548 46.983 44.9661C49.3403 41.342 53.014 39.3758 57.1228 41.9369C57.1806 41.9727 57.2219 42.0029 57.2852 42.0222C57.5826 38.8938 60.678 36.867 63.5998 38.0209C63.6577 38.0457 63.6301 38.0401 63.6907 38.0401C62.3688 31.0454 58.899 24.3535 52.8983 20.2585L49.4241 18.2328ZM31.1225 26.3297C31.1848 27.4384 31.4634 29.4575 32.0461 30.4423C33.4941 30.7446 36.842 30.8264 38.0776 30.1344C38.5565 29.2969 38.7347 28.0266 38.8801 27.087L38.9289 26.4803C38.1859 27.0041 37.4803 27.6755 37.1534 28.5438C37.0455 28.8324 37.0006 29.1455 36.8756 29.428C36.4016 29.2901 35.1905 28.5195 35.0974 28.5256C34.5778 28.5567 33.7246 29.1521 33.1772 29.3261C32.7536 27.9167 31.9886 27.4932 31.1225 26.3297Z" fill="#FFE603"/>
</svg>
