<svg width="34" height="45" viewBox="0 0 34 45" fill="none" xmlns="http://www.w3.org/2000/svg">
<g id="Players">
<path id="Vector" d="M8.39145 22.9465L8.92615 22.6138L8.4809 22.1685C5.13079 18.8176 4.22958 14.9192 4.61109 11.4799C4.99535 8.0159 6.6772 5.04789 8.44516 3.59192C10.5593 1.85083 13.5101 0.586896 16.5349 0.504303C19.5417 0.422202 22.63 1.50487 25.0841 4.47561C28.1518 8.18915 28.7757 11.8728 28.3337 14.9919C27.8888 18.1311 26.359 20.723 25.0907 22.1957L24.767 22.5715L25.1403 22.8982C25.3322 23.0662 25.571 23.2606 25.8453 23.4839C28.0724 25.2973 32.6343 29.0116 33.375 35.8822C33.6099 38.061 32.0251 39.9297 29.1226 41.3592C26.2489 42.7746 22.2621 43.6559 18.1522 43.9078C14.0438 44.1595 9.86603 43.7791 6.61635 42.7133C3.33826 41.6382 1.16559 39.9262 0.739228 37.6242C-0.729825 29.6926 4.93337 25.0981 8.39145 22.9465Z" fill="#C4C4C4" stroke="#958EAC"/>
</g>
</svg>
