<svg width="60" height="60" viewBox="0 0 60 60" fill="none"
  xmlns="http://www.w3.org/2000/svg">
  <circle cx="30" cy="30" r="30" fill="#222125"/>
  <path d="M29.9317 33.6167C27.8138 33.6167 26.0907 31.8936 26.0907 29.7757C26.0907 27.6578 27.8138 25.9347 29.9317 25.9347C32.0497 25.9347 33.7728 27.6578 33.7728 29.7757C33.7728 31.8936 32.0497 33.6167 29.9317 33.6167ZM29.9317 27.3347C28.5857 27.3347 27.4907 28.4298 27.4907 29.7757C27.4907 31.1216 28.5858 32.2167 29.9317 32.2167C31.2778 32.2167 32.3728 31.1216 32.3728 29.7757C32.3728 28.4297 31.2778 27.3347 29.9317 27.3347Z" fill="#C3C3C3"/>
  <path d="M30.0818 41.6937C28.9122 41.6937 27.902 40.8244 27.732 39.6716C27.706 39.495 27.6773 39.3313 27.6469 39.1848C27.5779 38.8525 27.336 38.5792 27.0155 38.4717C26.7144 38.3707 26.415 38.2525 26.126 38.1204C25.9953 38.0607 25.8566 38.0304 25.7138 38.0304C25.5131 38.0304 25.32 38.0908 25.1556 38.2052C25.0268 38.2949 24.8926 38.3939 24.7569 38.4994C24.3389 38.8249 23.8175 39.0042 23.2891 39.0042C22.6548 39.0042 22.0587 38.7575 21.6107 38.3095C20.7834 37.4823 20.684 36.153 21.3792 35.2174C21.4855 35.0744 21.5807 34.9391 21.662 34.8151C21.8484 34.5313 21.8701 34.1659 21.7188 33.8617C21.5772 33.5768 21.449 33.281 21.3378 32.9822C21.2172 32.6581 20.9315 32.419 20.5922 32.3583C20.4379 32.3308 20.2739 32.3061 20.1048 32.285C18.9126 32.1368 18.0135 31.1226 18.0135 29.9258C18.0135 28.7563 18.8829 27.746 20.0357 27.5761C20.2129 27.55 20.3766 27.5213 20.5223 27.491C20.8549 27.422 21.1281 27.18 21.2356 26.8596C21.3366 26.5586 21.4548 26.2592 21.587 25.9701C21.7313 25.6542 21.6988 25.2824 21.5021 24.9997C21.4123 24.8705 21.3133 24.7364 21.208 24.6011C20.4702 23.6534 20.5518 22.3007 21.3979 21.4547C21.3985 21.4542 21.399 21.4536 21.3996 21.453C21.849 21.0044 22.446 20.7573 23.0809 20.7573C23.5926 20.7573 24.0798 20.9185 24.49 21.2233C24.6328 21.3294 24.7682 21.4246 24.8922 21.506C25.0486 21.6087 25.2306 21.663 25.4187 21.663C25.5664 21.663 25.714 21.6283 25.8458 21.5629C26.1304 21.4213 26.4263 21.2931 26.7252 21.1818C27.0494 21.0612 27.2884 20.7755 27.3491 20.4363C27.3767 20.282 27.4013 20.118 27.4224 19.949C27.5705 18.7567 28.5848 17.8577 29.7815 17.8577C30.9512 17.8577 31.9614 18.727 32.1314 19.8798C32.1575 20.057 32.1861 20.2207 32.2165 20.3666C32.2855 20.6991 32.5275 20.9723 32.8479 21.0798C33.1489 21.1808 33.4483 21.299 33.7374 21.4312C33.8681 21.4909 34.0068 21.5212 34.1495 21.5212C34.3503 21.5212 34.5434 21.4607 34.7078 21.3463C34.8368 21.2566 34.9709 21.1576 35.1064 21.0522C35.5246 20.7267 36.0459 20.5473 36.5744 20.5473C37.2087 20.5473 37.8048 20.7941 38.2528 21.2421C39.0801 22.0693 39.1796 23.3985 38.4843 24.3341C38.3783 24.4767 38.2832 24.612 38.2015 24.7365C38.0152 25.0203 37.9934 25.3856 38.1448 25.6899C38.2862 25.9745 38.4144 26.2703 38.5257 26.5693C38.6463 26.8935 38.932 27.1325 39.2713 27.1932C39.4251 27.2208 39.589 27.2454 39.7587 27.2665C40.9509 27.4147 41.85 28.429 41.85 29.6256C41.85 30.7952 40.9806 31.8055 39.8278 31.9754C39.6507 32.0016 39.487 32.0302 39.3412 32.0605C39.0087 32.1295 38.7354 32.3715 38.628 32.6918C38.527 32.9928 38.4088 33.2921 38.2766 33.5813C38.1323 33.8973 38.1647 34.2691 38.3614 34.5519C38.4514 34.6812 38.5504 34.8153 38.6555 34.9504C39.392 35.8965 39.3118 37.2462 38.4699 38.0925C38.4684 38.0939 38.467 38.0955 38.4655 38.0969C38.0159 38.5465 37.4183 38.7941 36.7828 38.7941C36.7827 38.7941 36.7827 38.7941 36.7826 38.7941C36.2709 38.7941 35.7837 38.6329 35.3736 38.3281C35.2305 38.2219 35.0951 38.1267 34.9713 38.0454C34.815 37.9428 34.6329 37.8885 34.4449 37.8885C34.2972 37.8885 34.1495 37.9231 34.0178 37.9886C33.7332 38.1302 33.4373 38.2584 33.1384 38.3696C32.8143 38.4903 32.5753 38.776 32.5146 39.1152C32.487 39.2694 32.4623 39.4333 32.4413 39.6024C32.2929 40.7947 31.2786 41.6937 30.0818 41.6937ZM25.7138 36.6303C26.0588 36.6303 26.3934 36.7032 26.708 36.847C26.9526 36.9588 27.2059 37.0588 27.4608 37.1443C28.2513 37.4096 28.8478 38.0823 29.0177 38.9001C29.0537 39.0732 29.0871 39.264 29.117 39.4675C29.1865 39.9385 29.6013 40.2938 30.0819 40.2938C30.5736 40.2938 30.9906 39.9223 31.0518 39.4298C31.0758 39.2361 31.1043 39.0472 31.1362 38.8685C31.2837 38.0441 31.8637 37.3502 32.6498 37.0575C32.9029 36.9634 33.1534 36.8549 33.3943 36.735C33.7187 36.5737 34.0819 36.4885 34.4447 36.4885C34.9066 36.4885 35.3544 36.6222 35.7396 36.8751C35.8859 36.9712 36.0436 37.082 36.2084 37.2044C36.3754 37.3285 36.574 37.3941 36.7826 37.3941C37.0429 37.3941 37.2878 37.2931 37.4728 37.1096C37.4737 37.1087 37.4747 37.1077 37.4756 37.1068C37.8231 36.7592 37.8555 36.2019 37.5507 35.8104C37.4302 35.6556 37.3163 35.5012 37.2121 35.3514C36.7342 34.6643 36.6541 33.7632 37.0032 32.9995C37.1151 32.7546 37.2152 32.5013 37.3006 32.2466C37.5658 31.4563 38.2385 30.8597 39.0563 30.6898C39.2287 30.6539 39.4196 30.6205 39.6236 30.5904C40.0947 30.521 40.4499 30.1062 40.4499 29.6256C40.4499 29.1339 40.0785 28.7171 39.5859 28.6558C39.3916 28.6316 39.2028 28.6032 39.0246 28.5713C38.2002 28.4238 37.5062 27.8438 37.2136 27.0577C37.1194 26.8045 37.0109 26.5541 36.8912 26.3133C36.5191 25.5651 36.5727 24.6664 37.0312 23.9681C37.1278 23.8211 37.2386 23.6634 37.3606 23.4991C37.6448 23.1166 37.6028 22.572 37.263 22.2322C37.0793 22.0484 36.8348 21.9473 36.5745 21.9473C36.3528 21.9473 36.1426 22.0198 35.9665 22.1569C35.8112 22.2777 35.6568 22.3917 35.5073 22.4956C35.1071 22.774 34.6377 22.9212 34.1497 22.9212C33.8047 22.9212 33.4703 22.8483 33.1556 22.7045C32.9108 22.5926 32.6576 22.4926 32.4029 22.4072C31.6124 22.142 31.0158 21.4692 30.8459 20.6513C30.81 20.4789 30.7766 20.288 30.7465 20.084C30.677 19.6129 30.2623 19.2576 29.7817 19.2576C29.29 19.2576 28.8731 19.6291 28.8118 20.1216C28.7877 20.3153 28.7593 20.5041 28.7273 20.6828C28.5798 21.5074 27.9998 22.2013 27.2137 22.4939C26.9607 22.588 26.7102 22.6966 26.4693 22.8164C26.1449 22.9776 25.7817 23.0629 25.4189 23.0629C24.957 23.0629 24.5092 22.9293 24.124 22.6762C23.9774 22.58 23.8196 22.4692 23.655 22.3469C23.4882 22.2229 23.2897 22.1573 23.081 22.1573C22.8194 22.1573 22.5733 22.2593 22.3881 22.4445C22.3877 22.4449 22.3873 22.4453 22.3869 22.4457C22.0403 22.7933 22.0084 23.3499 22.3128 23.7411C22.4336 23.8962 22.5475 24.0507 22.6515 24.2002C23.1294 24.8871 23.2094 25.7882 22.8603 26.552C22.7484 26.7968 22.6484 27.0501 22.5629 27.3049C22.2977 28.0953 21.625 28.6918 20.8072 28.8617C20.6349 28.8975 20.444 28.9309 20.2399 28.961C19.7688 29.0304 19.4135 29.4452 19.4135 29.9258C19.4135 30.4175 19.785 30.8344 20.2776 30.8956C20.4712 30.9197 20.6599 30.9482 20.8386 30.9801C21.6634 31.1277 22.3573 31.7077 22.6498 32.4938C22.744 32.7467 22.8524 32.9972 22.9723 33.2382C23.3444 33.9864 23.2907 34.885 22.8322 35.5834C22.7361 35.7298 22.6252 35.8877 22.5028 36.0524C22.2186 36.4348 22.2606 36.9795 22.6004 37.3193C22.7841 37.503 23.0286 37.6041 23.289 37.6041C23.5107 37.6041 23.7208 37.5316 23.897 37.3946C24.0523 37.2736 24.2067 37.1597 24.356 37.0559C24.7564 36.7774 25.2259 36.6303 25.7138 36.6303Z" fill="#C3C3C3"/>
</svg>
