<svg width="60" height="60" viewBox="0 0 60 60" fill="none"
  xmlns="http://www.w3.org/2000/svg">
  <circle cx="30" cy="30" r="30" fill="#222125"/>
  <path d="M19.5966 30.6592L20.1313 30.3265L19.686 29.8811C18.3822 28.577 18.0363 27.0703 18.1839 25.7396C18.3342 24.3842 18.9929 23.2418 19.6503 22.7005C20.4722 22.0236 21.6203 21.5335 22.7878 21.5017C23.9375 21.4703 25.114 21.8805 26.0578 23.023C27.2605 24.4789 27.4957 25.9052 27.3255 27.1057C27.1526 28.3263 26.5553 29.3383 26.0644 29.9084L25.7407 30.2842L26.114 30.6109C26.1974 30.684 26.2991 30.767 26.4142 30.861C27.3303 31.6093 29.1016 33.0563 29.3914 35.7444C29.4668 36.4436 28.9716 37.1221 27.8108 37.6938C26.6788 38.2514 25.0858 38.6072 23.4249 38.709C21.7656 38.8107 20.092 38.6555 18.8048 38.2334C17.4892 37.8019 16.7374 37.1519 16.5932 36.3733L16.1022 36.4642L16.5932 36.3733C16.027 33.3164 18.1949 31.5313 19.5966 30.6592Z" fill="#C4C4C4" stroke="black"/>
  <path d="M33.6973 30.6592L34.232 30.3265L33.7867 29.8811C32.4829 28.577 32.137 27.0703 32.2846 25.7396C32.4349 24.3842 33.0937 23.2418 33.751 22.7005C34.5729 22.0236 35.721 21.5335 36.8886 21.5017C38.0382 21.4703 39.2147 21.8805 40.1585 23.023C41.3612 24.4789 41.5964 25.9052 41.4263 27.1057C41.2533 28.3263 40.656 29.3383 40.1651 29.9084L39.8414 30.2842L40.2147 30.6109C40.2982 30.684 40.3998 30.767 40.5149 30.861C41.431 31.6093 43.2024 33.0563 43.4922 35.7444C43.5675 36.4436 43.0723 37.1221 41.9115 37.6938C40.7795 38.2514 39.1865 38.6072 37.5256 38.709C35.8663 38.8107 34.1927 38.6555 32.9055 38.2334C31.59 37.8019 30.8381 37.1519 30.6939 36.3733L30.2029 36.4642L30.6939 36.3733C30.1277 33.3164 32.2956 31.5313 33.6973 30.6592Z" fill="#C4C4C4" stroke="black"/>
  <path d="M26.6469 30.6592L27.1816 30.3265L26.7364 29.8811C25.4325 28.577 25.0866 27.0703 25.2342 25.7396C25.3846 24.3842 26.0433 23.2418 26.7006 22.7005C27.5226 22.0236 28.6706 21.5335 29.8382 21.5017C30.9878 21.4703 32.1643 21.8805 33.1081 23.023C34.3108 24.4789 34.546 25.9052 34.3759 27.1057C34.2029 28.3263 33.6057 29.3383 33.1148 29.9084L32.7911 30.2842L33.1643 30.6109C33.2478 30.684 33.3494 30.767 33.4646 30.861C34.3806 31.6093 36.152 33.0563 36.4418 35.7444C36.5172 36.4436 36.0219 37.1221 34.8611 37.6938C33.7291 38.2514 32.1362 38.6072 30.4752 38.709C28.8159 38.8107 27.1423 38.6555 25.8552 38.2334C24.5396 37.8019 23.7877 37.1519 23.6435 36.3733L23.1526 36.4642L23.6435 36.3733C23.0773 33.3164 25.2453 31.5313 26.6469 30.6592Z" fill="#C4C4C4" stroke="black"/>
</svg>
