<svg width="60" height="60" viewBox="0 0 60 60" fill="none" xmlns="http://www.w3.org/2000/svg">
<g id="Leave Game Buttom">
<circle id="bg" cx="30" cy="30" r="30" fill="#222125"/>
<path id="Vector" d="M40.7415 29.1752L37.2415 25.6752C37.1331 25.5668 37.0044 25.4809 36.8628 25.4223C36.7212 25.3638 36.5695 25.3336 36.4162 25.3337C36.263 25.3337 36.1112 25.364 35.9697 25.4227C35.8281 25.4814 35.6995 25.5674 35.5912 25.6757C35.4829 25.7841 35.397 25.9128 35.3384 26.0544C35.2798 26.196 35.2497 26.3478 35.2497 26.501C35.2498 26.6542 35.28 26.806 35.3387 26.9475C35.3974 27.0891 35.4834 27.2177 35.5918 27.326L37.1003 28.8333H30.5833C30.2739 28.8333 29.9771 28.9562 29.7583 29.175C29.5395 29.3938 29.4166 29.6906 29.4166 30C29.4166 30.3094 29.5395 30.6062 29.7583 30.825C29.9771 31.0437 30.2739 31.1667 30.5833 31.1667H37.1003L35.5918 32.6752C35.4804 32.7828 35.3915 32.9115 35.3303 33.0539C35.2692 33.1962 35.237 33.3493 35.2357 33.5042C35.2343 33.6591 35.2638 33.8127 35.3225 33.9561C35.3812 34.0995 35.4678 34.2298 35.5773 34.3393C35.6869 34.4488 35.8171 34.5355 35.9605 34.5941C36.1039 34.6528 36.2575 34.6823 36.4124 34.681C36.5673 34.6796 36.7204 34.6474 36.8628 34.5863C37.0051 34.5251 37.1338 34.4363 37.2415 34.3248L40.7415 30.8248C40.8499 30.7165 40.936 30.5878 40.9947 30.4462C41.0534 30.3045 41.0836 30.1527 41.0836 29.9994C41.0836 29.8461 41.0534 29.6943 40.9947 29.5527C40.936 29.411 40.8499 29.2824 40.7415 29.174V29.1752Z" fill="#C3C3C3"/>
<path id="Vector_2" d="M30.5833 31.1667C30.2739 31.1667 29.9771 31.0438 29.7583 30.825C29.5395 30.6062 29.4166 30.3094 29.4166 30C29.4166 29.6906 29.5395 29.3938 29.7583 29.1751C29.9771 28.9563 30.2739 28.8333 30.5833 28.8333H35.25V21.8333C35.249 20.9054 34.88 20.0157 34.2238 19.3595C33.5676 18.7033 32.6779 18.3343 31.75 18.3333H22.4166C21.4887 18.3343 20.599 18.7033 19.9428 19.3595C19.2866 20.0157 18.9176 20.9054 18.9166 21.8333V38.1667C18.9176 39.0947 19.2866 39.9844 19.9428 40.6405C20.599 41.2967 21.4887 41.6658 22.4166 41.6667H31.75C32.6779 41.6658 33.5676 41.2967 34.2238 40.6405C34.88 39.9844 35.249 39.0947 35.25 38.1667V31.1667H30.5833Z" fill="white"/>
</g>
</svg>
