<svg width="60" height="60" viewBox="0 0 60 60" fill="none" xmlns="http://www.w3.org/2000/svg">
<g id="Perfil Buttom">
<circle id="bg" cx="30" cy="30" r="30" fill="#222125"/>
<path id="Vector" d="M19.8582 39.077C18.9682 34.2716 22.4137 31.5023 24.4408 30.241C20.4066 26.2058 22.2512 20.8106 24.4408 19.0073C26.9886 16.9092 31.549 15.9561 34.5266 19.5605C38.2035 24.0115 36.0593 28.4613 34.5266 30.241C35.5155 31.1064 38.9148 33.3559 39.4133 37.9798C40.0422 43.8136 20.9707 45.0837 19.8582 39.077Z" fill="#C4C4C4"/>
<path id="Vector_2" d="M19.8582 39.077C18.9682 34.2716 22.4137 31.5023 24.4408 30.241C20.4066 26.2058 22.2512 20.8106 24.4408 19.0073C26.9886 16.9092 31.549 15.9561 34.5266 19.5605C38.2035 24.0115 36.0593 28.4613 34.5266 30.241C35.5155 31.1064 38.9148 33.3559 39.4133 37.9798C40.0422 43.8136 20.9707 45.0837 19.8582 39.077Z" stroke="#C4C4C4" stroke-width="0.509"/>
</g>
</svg>
