<svg width="60" height="60" viewBox="0 0 60 60" fill="none" xmlns="http://www.w3.org/2000/svg">
<g id="Room Buttom">
<circle id="bg" cx="30" cy="30" r="30" fill="#222125"/>
<path id="Vector" d="M42.903 27.632C42.297 23.253 38.661 20 34.374 20H25.626C21.339 20 17.704 23.253 17.097 27.632C17.028 28.131 16 35.376 16 35.88C16 38.155 17.788 40 19.993 40C21.506 40 22.888 39.118 23.565 37.722L26 33H34L36.435 37.722C37.111 39.118 38.494 40 40.007 40C42.212 40 44 38.155 44 35.88C44 35.376 42.972 28.131 42.903 27.632ZM36 23C36.736 23 37.333 23.597 37.333 24.333C37.333 25.069 36.736 25.666 36 25.666C35.264 25.666 34.667 25.069 34.667 24.333C34.667 23.597 35.264 23 36 23ZM27 28H25V30H23V28H21V26H23V24H25V26H27V28ZM33.333 28.333C32.597 28.333 32 27.736 32 27C32 26.264 32.597 25.667 33.333 25.667C34.069 25.667 34.666 26.264 34.666 27C34.667 27.736 34.07 28.333 33.333 28.333ZM36 31C35.264 31 34.667 30.403 34.667 29.667C34.667 28.931 35.264 28.334 36 28.334C36.736 28.334 37.333 28.931 37.333 29.667C37.333 30.403 36.736 31 36 31ZM38.667 28.333C37.931 28.333 37.334 27.736 37.334 27C37.334 26.264 37.931 25.667 38.667 25.667C39.403 25.667 40 26.264 40 27C40 27.736 39.403 28.333 38.667 28.333Z" fill="#C3C3C3"/>
</g>
</svg>
