<svg width="60" height="60" viewBox="0 0 60 60" fill="none"
  xmlns="http://www.w3.org/2000/svg">
  <circle cx="30" cy="30" r="30" fill="#222125"/>
  <g clip-path="url(#clip0_0_1)">
    <mask id="mask0_0_1" style="mask-type:luminance" maskUnits="userSpaceOnUse" x="16" y="16" width="28" height="28">
      <path d="M44 16H16V44H44V16Z" fill="white"/>
    </mask>
    <g mask="url(#mask0_0_1)">
      <path d="M18.9168 35.3405H23.1899C23.4847 35.3405 23.8934 35.5098 24.1016 35.718L29.0003 40.6172C29.6259 41.2424 30.1334 41.0319 30.1334 40.1477V19.8504C30.1334 18.9662 29.6259 18.7557 29.0003 19.3814L24.1016 24.28C23.8934 24.4887 23.4847 24.6576 23.1899 24.6576H18.9168C18.0322 24.6576 17.3142 25.376 17.3142 26.2602V33.7379C17.3142 34.6225 18.0322 35.3405 18.9168 35.3405Z" fill="#C3C3C3"/>
      <path fill-rule="evenodd" clip-rule="evenodd" d="M40.549 30C40.549 27.5858 39.7851 25.2303 38.3646 23.2752C36.9702 21.3523 35.0207 19.8942 32.7829 19.0983L32.2767 18.919C31.9989 18.8205 31.8537 18.5147 31.9521 18.2373L32.31 17.2302C32.4089 16.9524 32.7147 16.8072 32.9921 16.906L33.4934 17.0845C36.1425 18.0247 38.4446 19.7445 40.0953 22.02C41.7775 24.3383 42.6857 27.1317 42.6857 30C42.6857 32.863 41.7775 35.6564 40.0953 37.9747C38.4446 40.2502 36.1425 41.9752 33.4934 42.9154L32.9921 43.0939C32.7147 43.1928 32.4089 43.0475 32.31 42.7697L31.9521 41.7626C31.8537 41.4852 31.9989 41.1794 32.2767 41.081L32.7829 40.9016C35.0207 40.1058 36.9702 38.6476 38.3646 36.7248C39.7851 34.7696 40.549 32.4141 40.549 30Z" fill="#C3C3C3"/>
      <path d="M32.66 24.525L32.1809 24.2844C31.9176 24.1519 31.8112 23.8303 31.9438 23.5669L32.4255 22.6092C32.5576 22.3459 32.8787 22.24 33.1421 22.373L33.6159 22.6127C35.0102 23.3127 36.1959 24.354 37.0717 25.6415C37.9371 26.9287 38.4074 28.4455 38.4127 29.9999C38.4074 31.5544 37.9371 33.0659 37.0717 34.353C36.1959 35.6402 35.0102 36.6819 33.6159 37.3819L33.1421 37.6212C32.8787 37.7542 32.5576 37.6487 32.4251 37.3854L31.9442 36.4325C31.8117 36.1691 31.9176 35.848 32.1809 35.7154L32.66 35.4748C33.7231 34.9406 34.6309 34.1395 35.3038 33.1565C35.929 32.222 36.2707 31.1269 36.2759 29.9999C36.2707 28.8729 35.929 27.7726 35.3038 26.8434C34.6309 25.855 33.7231 25.0592 32.66 24.525Z" fill="#C3C3C3"/>
    </g>
  </g>
  <defs>
    <clipPath id="clip0_0_1">
      <rect width="28" height="28" fill="white" transform="translate(16 16)"/>
    </clipPath>
  </defs>
</svg>
