<svg width="192" height="212" viewBox="0 0 192 212" fill="none" xmlns="http://www.w3.org/2000/svg">
<g id="BackGround">
<path id="bg" d="M0 40C0 25.9987 0 18.998 2.72484 13.6502C5.12167 8.94619 8.94619 5.12167 13.6502 2.72484C18.998 0 25.9987 0 40 0H152C166.001 0 173.002 0 178.35 2.72484C183.054 5.12167 186.878 8.94619 189.275 13.6502C192 18.998 192 25.9987 192 40V172C192 186.001 192 193.002 189.275 198.35C186.878 203.054 183.054 206.878 178.35 209.275C173.002 212 166.001 212 152 212H40C25.9987 212 18.998 212 13.6502 209.275C8.94619 206.878 5.12167 203.054 2.72484 198.35C0 193.002 0 186.001 0 172V40Z" fill="#222125" fill-opacity="0.5"/>
</g>
</svg>
