<svg width="55" height="55" viewBox="0 0 55 55" fill="none" xmlns="http://www.w3.org/2000/svg">
<g id="card-game">
<g clip-path="url(#clip0_29_22)">
<path id="Vector" fill-rule="evenodd" clip-rule="evenodd" d="M8.81957 21.4273C7.42423 16.8843 9.97595 12.0703 14.519 10.6749L28.3731 6.41981C32.9162 5.02445 37.7301 7.57618 39.1254 12.1192L45.5081 32.9003C46.9035 37.4434 44.3518 42.2573 39.8087 43.6527L25.9546 47.9078C21.4116 49.3031 16.5976 46.7515 15.2022 42.2084L8.81957 21.4273ZM15.3168 13.2726C12.2084 14.2273 10.4625 17.5211 11.4172 20.6294L17.7999 41.4106C18.7546 44.5189 22.0484 46.2649 25.1568 45.3102L39.0109 41.055C42.1192 40.1003 43.8652 36.8065 42.9105 33.6982L36.5278 12.917C35.5731 9.80864 32.2793 8.06276 29.1709 9.01745L15.3168 13.2726Z" fill="white"/>
</g>
</g>
<defs>
<clipPath id="clip0_29_22">
<rect y="12.7654" width="43.4785" height="43.4785" rx="21.7392" transform="rotate(-17.0737 0 12.7654)" fill="white"/>
</clipPath>
</defs>
</svg>
