<svg width="20" height="20" viewBox="0 0 20 20" fill="none" xmlns="http://www.w3.org/2000/svg">
<g id="siren" clip-path="url(#clip0_29_3529)">
<path id="Vector" d="M10.6225 8.23125C11.3512 8.48812 11.875 9.18437 11.875 10M16.875 18.125H3.125V16.25C3.125 15.5594 3.68437 15 4.375 15H15.625C16.3156 15 16.875 15.5594 16.875 16.25V18.125ZM14.375 15H5.625V10C5.625 7.58375 7.58375 5.625 10 5.625C12.4162 5.625 14.375 7.58375 14.375 10V15Z" stroke="white" stroke-width="2" stroke-miterlimit="10" stroke-linecap="round" stroke-linejoin="round"/>
<path id="Vector_2" d="M10 1.875V3.125" stroke="white" stroke-width="2" stroke-miterlimit="10" stroke-linecap="round" stroke-linejoin="round"/>
<path id="Vector_3" d="M4.255 4.255L5.13875 5.13875" stroke="white" stroke-width="2" stroke-miterlimit="10" stroke-linecap="round" stroke-linejoin="round"/>
<path id="Vector_4" d="M15.745 4.255L14.8613 5.13875" stroke="white" stroke-width="2" stroke-miterlimit="10" stroke-linecap="round" stroke-linejoin="round"/>
<path id="Vector_5" d="M1.875 10H3.125" stroke="white" stroke-width="2" stroke-miterlimit="10" stroke-linecap="round" stroke-linejoin="round"/>
<path id="Vector_6" d="M16.875 10H18.125" stroke="white" stroke-width="2" stroke-miterlimit="10" stroke-linecap="round" stroke-linejoin="round"/>
</g>
<defs>
<clipPath id="clip0_29_3529">
<rect width="20" height="20" fill="white"/>
</clipPath>
</defs>
</svg>
