<svg width="33" height="40" viewBox="0 0 33 40" fill="none" xmlns="http://www.w3.org/2000/svg">
<path id="Vector" fill-rule="evenodd" clip-rule="evenodd" d="M0.40918 9.34791C0.40918 4.59544 4.26183 0.742798 9.0143 0.742798H23.5071C28.2597 0.742798 32.1123 4.59544 32.1123 9.34791V31.0871C32.1123 35.8397 28.2597 39.6923 23.5071 39.6923H9.0143C4.26183 39.6923 0.40918 35.8397 0.40918 31.0871V9.34791ZM9.0143 3.4602C5.7626 3.4602 3.12659 6.09621 3.12659 9.34791V31.0871C3.12659 34.3388 5.7626 36.9748 9.0143 36.9748H23.5071C26.7588 36.9748 29.3949 34.3388 29.3949 31.0871V9.34791C29.3949 6.09621 26.7588 3.4602 23.5071 3.4602H9.0143Z" fill="white"/>
</svg>
