<svg width="193" height="212" viewBox="0 0 193 212" fill="none" xmlns="http://www.w3.org/2000/svg">
<g id="BackGround">
<path id="bg" d="M0.5 40C0.5 25.9987 0.5 18.998 3.22484 13.6502C5.62167 8.94619 9.44619 5.12167 14.1502 2.72484C19.498 0 26.4987 0 40.5 0H152.5C166.501 0 173.502 0 178.85 2.72484C183.554 5.12167 187.378 8.94619 189.775 13.6502C192.5 18.998 192.5 25.9987 192.5 40V172C192.5 186.001 192.5 193.002 189.775 198.35C187.378 203.054 183.554 206.878 178.85 209.275C173.502 212 166.501 212 152.5 212H40.5C26.4987 212 19.498 212 14.1502 209.275C9.44619 206.878 5.62167 203.054 3.22484 198.35C0.5 193.002 0.5 186.001 0.5 172V40Z" fill="#222125" fill-opacity="0.5"/>
</g>
</svg>
