<svg width="21" height="27" viewBox="0 0 21 27" fill="none" xmlns="http://www.w3.org/2000/svg">
<g id="Players">
<path id="Vector" d="M5.55926 13.7125L6.09395 13.3798L5.6487 12.9344C3.72063 11.0059 3.20534 8.76964 3.4243 6.79576C3.646 4.79713 4.61683 3.09783 5.61296 2.27748C6.82908 1.27597 8.52706 0.549813 10.2612 0.502463C11.9774 0.455603 13.7371 1.07098 15.1416 2.77117C16.9132 4.91577 17.267 7.03069 17.0139 8.81644C16.758 10.6224 15.8763 12.1163 15.1482 12.9617L14.8245 13.3375L15.1978 13.6642C15.3143 13.7662 15.4578 13.8832 15.6215 14.0167C16.9376 15.09 19.5601 17.2286 19.9874 21.1925C20.1115 22.343 19.2839 23.3847 17.5918 24.218C15.9285 25.0373 13.6053 25.5534 11.1972 25.701C8.79086 25.8484 6.35336 25.6246 4.46753 25.0061C2.55329 24.3783 1.368 23.4043 1.13772 22.1609C0.296113 17.617 3.53027 14.9749 5.55926 13.7125Z" fill="#C4C4C4" stroke="black"/>
</g>
</svg>
